<?xml version="1.0" standalone="no"?>
<!DOCTYPE svg PUBLIC "-//W3C//DTD SVG 1.1//EN" "http://www.w3.org/Graphics/SVG/1.1/DTD/svg11.dtd" >
<svg xmlns="http://www.w3.org/2000/svg">
<metadata></metadata>
<defs>
<font id="nerissemibold" horiz-adv-x="1452" >
<font-face units-per-em="2048" ascent="1546" descent="-502" />
<missing-glyph horiz-adv-x="425" />
<glyph horiz-adv-x="2048" />
<glyph horiz-adv-x="2048" />
<glyph unicode="&#xd;" horiz-adv-x="901" />
<glyph unicode=" "  horiz-adv-x="425" />
<glyph unicode="&#x09;" horiz-adv-x="425" />
<glyph unicode="&#xa0;" horiz-adv-x="425" />
<glyph unicode="!" horiz-adv-x="542" d="M139 125q0 69 37.5 108t104.5 39t105 -39t38 -108t-38 -108.5t-105 -39.5t-104.5 39.5t-37.5 108.5zM152 920v491q0 23 22 23h197q22 0 22 -23v-491q0 -82 -18 -266t-21 -240q0 -23 -22 -23h-121q-23 0 -23 23q-3 63 -19.5 244.5t-16.5 261.5z" />
<glyph unicode="&#x22;" horiz-adv-x="761" d="M117 1307v139q0 22 22 22h156q22 0 22 -22v-139q0 -39 -14 -140t-16 -116q-3 -21 -23 -21h-92q-22 0 -25 21q-2 30 -16 124.5t-14 131.5zM444 1307v139q0 22 23 22h156q22 0 22 -22v-139q0 -39 -14.5 -138.5t-16.5 -117.5q-4 -21 -22 -21h-92q-22 0 -25 21 q-2 30 -16.5 124.5t-14.5 131.5z" />
<glyph unicode="#" horiz-adv-x="1525" d="M96 322l23 159q3 21 22 21h209l60 428h-205q-26 0 -23 24l19 160q3 21 22 21h215l39 276q3 21 23 21h168q23 0 20 -25l-37 -272h340l39 276q3 21 23 21h168q23 0 20 -25l-37 -272h205q26 0 23 -25l-19 -160q-3 -20 -22 -20h-215l-60 -428h209q24 0 21 -25l-23 -160 q-3 -20 -23 -20h-213l-38 -277q-3 -20 -23 -20h-168q-23 0 -20 25l36 272h-342l-38 -277q-3 -20 -23 -20h-166q-23 0 -20 25l37 272h-205q-24 0 -21 25zM561 502h342l60 428h-340z" />
<glyph unicode="$" horiz-adv-x="1243" d="M111 111l53 157q11 22 29 13l112 -37q168 -54 322 -54q123 0 200.5 49t77.5 148q0 117 -203 193l-229 86q-189 70 -265.5 160t-76.5 239q0 157 98 255.5t271 123.5v186q0 23 22 23h185q22 0 22 -23v-184q89 -10 205 -45l119 -39q23 -10 14 -29l-55 -155q-11 -21 -29 -15 l-109 35q-137 43 -260 43q-111 0 -179 -48.5t-68 -127.5q0 -65 45 -112t153 -87l228 -84q186 -70 267 -158t81 -237q0 -168 -103 -272t-288 -129v-187q0 -22 -23 -22h-186q-23 0 -23 22v183q-126 11 -287 65l-106 35q-23 10 -14 29z" />
<glyph unicode="%" horiz-adv-x="1579" d="M100 1124q0 146 84.5 229t227.5 83t227 -83t84 -229q0 -145 -84.5 -228t-226.5 -83t-227 83t-85 228zM218 8q-5 8 3 19l936 1372q11 14 27 14h157q13 0 18 -8.5t-3 -18.5l-936 -1372q-11 -14 -27 -14h-157q-13 0 -18 8zM276 1124q0 -67 36.5 -108t99.5 -41q62 0 98.5 41 t36.5 108q0 72 -36 111t-99 39q-65 0 -100.5 -39t-35.5 -111zM856 289q0 145 83.5 227t227.5 82t227 -82t83 -227q0 -146 -83.5 -229t-226.5 -83t-227 83.5t-84 228.5zM1032 289q0 -67 36.5 -107.5t98.5 -40.5q64 0 100 40.5t36 107.5q0 69 -35.5 107t-100.5 38 q-63 0 -99 -38t-36 -107z" />
<glyph unicode="&#x26;" d="M94 322q0 103 45.5 182t155.5 162l102 82q-70 86 -100.5 161t-30.5 160q0 177 115.5 280t310.5 103q126 0 262 -45l105 -35q23 -10 14 -29l-53 -151q-11 -21 -29 -12l-98 32q-44 13 -66 18.5t-58 10t-77 4.5q-95 0 -152 -47.5t-57 -128.5q0 -54 25 -105.5t88 -119.5 l342 -377l39 31q63 59 84.5 90t21.5 78v59h-127q-22 0 -22 23v155q0 23 22 23h320q22 0 22 -23v-237q0 -76 -20 -131t-59.5 -99.5t-114.5 -103.5l-25 -21l258 -282q9 -12 5.5 -20.5t-17.5 -8.5h-225q-18 0 -27 12l-160 172l-98 -73q-95 -72 -178.5 -103t-177.5 -31 q-171 0 -268 92.5t-97 252.5zM313 322q0 -63 39 -99.5t107 -36.5q61 0 114.5 22t118.5 75l78 57l-233 254l-134 -105q-51 -43 -70.5 -80.5t-19.5 -86.5z" />
<glyph unicode="'" horiz-adv-x="434" d="M117 1307v139q0 22 22 22h156q22 0 22 -22v-139q0 -39 -14 -140t-16 -116q-3 -21 -23 -21h-92q-22 0 -25 21q-2 30 -16 124.5t-14 131.5z" />
<glyph unicode="(" horiz-adv-x="737" d="M186 670q0 467 201 856q8 16 27 16h166q12 0 17 -7t-1 -19q-96 -211 -148.5 -409.5t-52.5 -436.5q0 -239 52.5 -438t148.5 -410q6 -12 1 -19.5t-17 -7.5h-166q-18 0 -27 17q-201 389 -201 858z" />
<glyph unicode=")" horiz-adv-x="737" d="M140.5 -197.5q-5.5 7.5 0.5 19.5q96 211 148.5 410t52.5 438q0 238 -52.5 436.5t-148.5 409.5q-6 12 -0.5 19t17.5 7h166q18 0 26 -16q201 -389 201 -856q0 -469 -201 -858q-8 -17 -26 -17h-166q-12 0 -17.5 7.5z" />
<glyph unicode="*" horiz-adv-x="837" d="M86 1100v106q0 23 23 23h102q42 0 96 -12q6 -2 8 2t-2 8q-44 44 -59 69l-82 146q-6 10 -1.5 18t17.5 8h121q19 0 27 -16l45 -78q22 -45 31 -90q1 -6 4 -7.5t6 1t4 8.5q11 49 29 84l47 82q8 16 26 16h121q14 0 18 -8t-3 -18l-82 -146q-19 -34 -58 -69q-4 -4 -4 -6 q0 -6 23 0q46 8 80 8h106q23 0 23 -23v-106q0 -23 -23 -23h-106q-15 0 -32 2.5t-37.5 7t-25.5 5.5q-6 2 -8 -2.5t2 -10.5q42 -37 62 -69l80 -146q6 -10 1 -18t-18 -8h-117q-18 0 -26 16l-45 78q-25 47 -33 90q-1 7 -4 9.5t-6 0t-4 -9.5q-7 -39 -33 -90l-45 -78 q-8 -16 -27 -16h-117q-13 0 -17.5 8t1.5 18l80 142q17 33 59 75q6 4 3 9.5t-9 3.5q-53 -17 -96 -17h-102q-23 0 -23 23z" />
<glyph unicode="+" horiz-adv-x="1292" d="M152 455v159q0 23 22 23h367v397q0 23 22 23h166q23 0 23 -23v-397h366q23 0 23 -23v-159q0 -23 -23 -23h-366v-399q0 -23 -23 -23h-166q-22 0 -22 23v399h-367q-22 0 -22 23z" />
<glyph unicode="," horiz-adv-x="505" d="M104 -289h144l80 156q69 127 69 237q0 77 -38.5 121.5t-104.5 44.5q-69 0 -107 -38.5t-38 -110.5q0 -50 24.5 -85.5t63.5 -47.5q28 -8 31.5 -23t-15.5 -47z" />
<glyph unicode="-" horiz-adv-x="894" d="M152 457v157q0 23 22 23h547q22 0 22 -23v-157q0 -23 -22 -23h-547q-22 0 -22 23z" />
<glyph unicode="." horiz-adv-x="522" d="M119 125q0 69 37 108t104 39t105 -39t38 -108t-38 -108.5t-105 -39.5t-104 39.5t-37 108.5z" />
<glyph unicode="/" horiz-adv-x="1069" d="M94 -178l682 1704q6 18 25 18h176q28 0 18 -26l-684 -1704q-6 -19 -24 -19h-174q-29 0 -19 27z" />
<glyph unicode="0" horiz-adv-x="1312" d="M109 715q0 342 146 539.5t400 197.5q256 0 402.5 -197.5t146.5 -539.5t-146.5 -540t-402.5 -198q-254 0 -400 198t-146 540zM340 715q0 -251 83 -391t232 -140q151 0 234.5 140t83.5 391q0 250 -84 391t-234 141q-149 0 -232 -141t-83 -391z" />
<glyph unicode="1" horiz-adv-x="731" d="M80 1235q-10 20 12 29l426 182q16 5 31 -4l12 -10q12 -9 12 -27v-1382q0 -23 -22 -23h-182q-23 0 -23 23v958q0 63 10 141q3 23 -16 23q-2 0 -6 -1t-6 -1q-6 -2 -14.5 -7t-10.5 -6l-135 -59q-20 -10 -29 12z" />
<glyph unicode="2" horiz-adv-x="1191" d="M127 23v98q0 189 64.5 325t201.5 226l324 215q119 80 119 172q0 86 -64 137t-174 51q-134 0 -258 -43l-119 -39q-19 -6 -26 15l-52 153q-10 20 15 27l114 39q175 53 326 53q219 0 344 -104t125 -289q0 -102 -57.5 -185t-180.5 -163l-325 -219q-73 -50 -109.5 -125 t-36.5 -164h666q23 0 23 -23v-157q0 -23 -23 -23h-874q-23 0 -23 23z" />
<glyph unicode="3" horiz-adv-x="1196" d="M113 102l55 150q9 21 29 14l116 -39q134 -43 258 -43q129 0 205 63.5t76 170.5q0 108 -72 169.5t-200 61.5h-99q-22 0 -22 23v157q0 23 22 23h97q107 0 168 51t61 137q0 96 -64 151.5t-172 55.5q-106 0 -231 -39l-102 -34q-19 -6 -29 14l-51 151q-10 22 14 29l104 35 q146 49 295 49q217 0 341 -103t124 -286q0 -106 -44 -176t-136 -113q-15 -8 -15 -16.5t15 -14.5q112 -45 168.5 -135.5t56.5 -214.5q0 -193 -137 -304.5t-373 -111.5q-142 0 -323 56l-121 39q-23 10 -14 30z" />
<glyph unicode="4" horiz-adv-x="1271" d="M90 389v172q0 19 10 29q89 103 146 182l379 488q39 50 104 157q12 15 29 15h248q22 0 22 -23v-840h127q23 0 23 -22v-158q0 -22 -23 -22h-127v-344q0 -23 -22 -23h-185q-22 0 -22 23v344h-686q-23 0 -23 22zM348 578.5q4 -9.5 17 -9.5h434v355q0 95 12 200q3 19 -8 22.5 t-23 -13.5l-331 -422q-51 -70 -95 -111q-10 -12 -6 -21.5z" />
<glyph unicode="5" horiz-adv-x="1222" d="M121 104l57 150q9 22 29 12l115 -39q137 -43 264 -43q136 0 214 71.5t81 197.5q2 115 -68 180t-205 65q-69 0 -178 -16l-180 -25q-14 -2 -29 9l-16 16q-12 9 -12 27v700q0 23 22 23h791q12 0 17 -7.5t1 -17.5l-45 -160q-6 -18 -27 -18h-532v-215q0 -80 -4 -113 q-3 -16 3 -19t25 1l58 8q76 12 143 12q217 2 342 -118t125 -332q0 -223 -139.5 -349.5t-386.5 -126.5q-143 0 -330 58l-121 39q-23 10 -14 30z" />
<glyph unicode="6" horiz-adv-x="1261" d="M109 471q0 173 57 313t207 340l215 293q12 15 26 15h220q15 0 19 -8t-5 -19l-281 -381q-46 -67 -106 -127q-14 -15 -7 -25.5t27 -1.5q95 50 224 50q196 0 324 -125.5t128 -341.5q0 -225 -138 -350.5t-386 -125.5q-252 0 -389 129.5t-135 364.5zM340 453 q0 -126 77.5 -197.5t215.5 -71.5t215.5 71.5t77.5 197.5q0 125 -77.5 195.5t-215.5 70.5q-139 0 -216 -70.5t-77 -195.5z" />
<glyph unicode="7" horiz-adv-x="1204" d="M96 1251v158q0 23 23 23h971q18 0 26 -17l8 -12q11 -17 0 -33q-67 -112 -137 -274l-455 -1080q-10 -16 -26 -16h-195q-12 0 -17 7.5t-1 19.5l428 1007q40 92 90 162q11 19 5 26t-30 7h-667q-23 0 -23 22z" />
<glyph unicode="8" horiz-adv-x="1280" d="M115 391q0 126 68.5 215.5t183.5 134.5q11 4 15 10t0 12t-15 11q-102 39 -154.5 116.5t-52.5 182.5q0 175 128.5 277t350.5 102t350.5 -102t128.5 -277q0 -106 -53 -183t-156 -116q-15 -8 -15 -17.5t15 -15.5q118 -45 187 -134.5t69 -215.5q0 -192 -140 -303t-386 -111 q-245 0 -384.5 110.5t-139.5 303.5zM346 412q0 -108 78 -168t215 -60q139 0 217 60t78 168q0 109 -82 173t-213 64t-212 -64t-81 -173zM391 1047q0 -89 66.5 -141t181.5 -52t181.5 52t66.5 141q0 94 -66 147t-182 53q-117 0 -182.5 -53t-65.5 -147z" />
<glyph unicode="9" horiz-adv-x="1261" d="M98 979q0 225 138 350t387 125q252 0 389 -129t135 -364q0 -173 -57.5 -313.5t-206.5 -340.5l-215 -293q-11 -14 -27 -14h-219q-15 0 -19 8t5 19l280 381q44 64 107 127q14 15 6.5 25t-27.5 1q-94 -49 -223 -49q-196 0 -324.5 126t-128.5 341zM330 979 q0 -125 77.5 -195.5t215.5 -70.5q139 0 215.5 70.5t76.5 195.5q0 126 -77 197t-215 71t-215.5 -71t-77.5 -197z" />
<glyph unicode=":" horiz-adv-x="501" d="M119 127q0 69 37 108t104 39t105 -39t38 -108t-38 -108t-105 -39t-104 39t-37 108zM119 868q0 69 37 108.5t104 39.5t105 -39.5t38 -108.5t-38 -108t-105 -39t-104 39t-37 108z" />
<glyph unicode=";" horiz-adv-x="514" d="M111 -283h143l80 156q69 127 69 238q0 76 -38.5 120.5t-104.5 44.5q-69 0 -107 -38.5t-38 -110.5q0 -50 24.5 -85.5t63.5 -47.5q28 -8 31.5 -23t-15.5 -47zM125 868q0 69 37 108.5t104 39.5t105.5 -39.5t38.5 -108.5t-38 -108t-106 -39q-67 0 -104 39t-37 108z" />
<glyph unicode="&#x3c;" horiz-adv-x="1294" d="M154 467v117q0 16 16 26l946 445q12 6 19.5 0.5t7.5 -17.5v-182q0 -17 -17 -27l-667 -305l667 -305q17 -10 17 -26v-181q0 -12 -7.5 -17t-19.5 1l-946 444q-16 10 -16 27z" />
<glyph unicode="=" horiz-adv-x="1234" d="M152 227v158q0 23 22 23h887q22 0 22 -23v-158q0 -22 -22 -22h-887q-22 0 -22 22zM152 686v158q0 22 22 22h887q22 0 22 -22v-158q0 -22 -22 -22h-887q-22 0 -22 22z" />
<glyph unicode="&#x3e;" horiz-adv-x="1294" d="M152 12v181q0 16 16 26l668 305l-668 305q-16 10 -16 27v182q0 12 7 17.5t19 -0.5l946 -445q17 -10 17 -26v-117q0 -17 -17 -27l-946 -444q-12 -6 -19 -1t-7 17z" />
<glyph unicode="?" horiz-adv-x="1159" d="M96 1331q-10 20 15 27l120 41q174 53 334 53q228 0 351.5 -100t123.5 -275q0 -100 -48.5 -180.5t-153.5 -155.5l-113 -79q-82 -62 -82 -154v-105q0 -22 -22 -22h-185q-22 0 -22 22v105q0 106 43 184.5t135 143.5l117 79q53 37 77.5 74t24.5 88q0 68 -69.5 112t-176.5 44 q-130 0 -264 -41l-119 -39q-18 -6 -28 14zM397 123q0 69 37.5 108t104.5 39t105 -39t38 -108t-38 -108.5t-105 -39.5t-104.5 39.5t-37.5 108.5z" />
<glyph unicode="@" horiz-adv-x="1775" d="M131 518q0 333 205 536t543 203q170 0 315.5 -53.5t245 -145.5t155.5 -218.5t56 -270.5q0 -152 -75 -229.5t-198 -77.5q-106 0 -172.5 59t-130.5 207q-34 77 -75.5 115.5t-110.5 38.5q-74 0 -120 -42.5t-46 -115.5q0 -76 48.5 -120t131.5 -44q41 0 111 17l6 2 q19 6 31 -12q41 -83 100 -125q23 -20 -4 -29l-86 -23q-71 -24 -162 -24q-175 0 -275 95t-100 263q0 162 93.5 255t261.5 93q111 0 189 -41.5t136 -134.5q35 -51 69 -119.5t54 -94t51 -25.5q30 0 50 26.5t20 85.5q0 211 -161 351.5t-408 140.5q-245 0 -395 -149.5 t-150 -393.5q0 -242 148 -390t392 -148q159 0 304 47l180 47q19 6 26 -15l46 -145q6 -22 -17 -29l-184 -51q-165 -51 -355 -51q-338 0 -540.5 202t-202.5 533z" />
<glyph unicode="A" horiz-adv-x="1478" d="M78 27l352 899q108 291 158 485q3 21 24 21h252q22 0 25 -19q53 -198 160 -487l352 -899q3 -7 3 -12q0 -15 -22 -15h-196q-19 0 -25 18l-100 256h-643l-101 -256q-6 -18 -24 -18h-197q-21 0 -21 15q0 5 3 12zM498 481h483l-109 269q-89 241 -116 378q-3 12 -10 16 q-4 2 -7 2l-7 -2q-7 -4 -9 -16q-26 -134 -119 -378z" />
<glyph unicode="B" horiz-adv-x="1335" d="M158 23v1386q0 23 22 23h551q215 0 338 -97.5t123 -269.5q0 -118 -55.5 -195t-135.5 -110q-21 -6 -21 -17.5t21 -17.5q46 -14 86.5 -40.5t75.5 -66.5t55.5 -100t20.5 -131q0 -183 -125.5 -285t-349.5 -102h-584q-22 0 -22 23zM389 207h373q113 0 176 53t63 148 q0 225 -313 225h-299v-426zM389 838h283q139 0 211.5 53t72.5 151q0 85 -60.5 134t-164.5 49h-342v-387z" />
<glyph unicode="C" horiz-adv-x="1263" d="M104 717q0 340 168 537.5t461 197.5q91 0 157 -10t142 -37l90 -31q21 -7 15 -26l-54 -158q-7 -20 -26 -14l-92 30q-93 32 -232 35q-186 0 -289.5 -138t-103.5 -386q0 -250 103.5 -388.5t289.5 -138.5q127 0 234 37l90 31q18 6 28 -14l56 -154q2 -6 2 -11q0 -13 -17 -18 l-90 -30q-85 -30 -151.5 -42t-151.5 -12q-292 0 -460.5 199t-168.5 541z" />
<glyph unicode="D" horiz-adv-x="1388" d="M158 23v1386q0 23 22 23h479q291 0 458 -193t167 -524q0 -327 -168.5 -521t-456.5 -194h-479q-22 0 -22 23zM389 207h270q182 0 285 133.5t103 374.5q0 242 -103 376t-285 134h-270v-1018z" />
<glyph unicode="E" horiz-adv-x="1241" d="M158 23v1386q0 23 22 23h938q12 0 18 -7t3 -18l-45 -164q-6 -18 -27 -18h-678v-387h569q23 0 23 -23v-160q0 -22 -23 -22h-569v-426h729q23 0 23 -23v-161q0 -23 -23 -23h-938q-22 0 -22 23z" />
<glyph unicode="F" horiz-adv-x="1224" d="M158 23v1386q0 23 22 23h932q12 0 18 -7q4 -5 4 -11q0 -3 -1 -7l-46 -164q-6 -18 -26 -18h-672v-445h584q22 0 22 -22v-162q0 -23 -22 -23h-584v-550q0 -23 -22 -23h-187q-22 0 -22 23z" />
<glyph unicode="G" horiz-adv-x="1372" d="M104 715q0 341 167.5 539t459.5 198q148 0 301 -49l94 -33q24 -10 15 -29l-58 -153q-9 -20 -28 -14l-90 30q-110 37 -234 37q-184 0 -287.5 -139t-103.5 -387t103.5 -386.5t287.5 -138.5q129 0 227 33l58 19v309h-248q-12 0 -17.5 6.5t-2.5 17.5l45 164q6 19 26 19h398 q22 0 22 -23v-620q0 -21 -18 -27l-88 -29l-101 -34q-84 -27 -147.5 -37.5t-153.5 -10.5q-292 0 -459.5 198.5t-167.5 539.5z" />
<glyph unicode="H" horiz-adv-x="1437" d="M158 23v1386q0 23 22 23h187q22 0 22 -23v-571h658v571q0 23 22 23h188q23 0 23 -23v-1386q0 -23 -23 -23h-188q-22 0 -22 23v610h-658v-610q0 -23 -22 -23h-187q-22 0 -22 23z" />
<glyph unicode="I" horiz-adv-x="546" d="M158 23v1386q0 23 22 23h187q22 0 22 -23v-1386q0 -23 -22 -23h-187q-22 0 -22 23z" />
<glyph unicode="J" horiz-adv-x="921" d="M86 59l53 156q10 20 29 14l57 -18q54 -21 129 -21q83 0 132 60t49 180v979q0 23 22 23h186q23 0 23 -23v-979q0 -212 -109.5 -332.5t-302.5 -120.5q-97 0 -198 35l-58 19q-15 7 -15 18q0 5 3 10z" />
<glyph unicode="K" horiz-adv-x="1366" d="M158 23v1386q0 23 22 23h187q22 0 22 -23v-571h45q105 0 205 76t172 194l190 309q12 15 29 15h205q12 0 16.5 -8t-2.5 -19l-239 -395q-57 -93 -132 -159.5t-153 -98.5q-11 -5 -11.5 -12.5t11.5 -12.5q173 -74 299 -281l256 -419q4 -7 4 -12q0 -4 -2 -7q-4 -8 -18 -8h-207 q-18 0 -29 14l-203 328q-77 130 -178.5 210.5t-210.5 80.5h-47v-610q0 -23 -22 -23h-187q-22 0 -22 23z" />
<glyph unicode="L" horiz-adv-x="1165" d="M158 23v1386q0 23 22 23h187q22 0 22 -23v-1202h649q23 0 23 -23v-161q0 -23 -23 -23h-858q-22 0 -22 23z" />
<glyph unicode="M" horiz-adv-x="1687" d="M158 23v1386q0 23 22 23h287q21 0 27 -19q23 -85 51 -151l205 -492q41 -104 79 -238q3 -11 9 -15.5t11.5 0t8.5 15.5q38 136 76 238l207 490q34 81 55 153q3 19 25 19h286q23 0 23 -23v-1386q0 -23 -23 -23h-186q-23 0 -23 23v663q0 254 19 393q3 20 -9.5 23t-19.5 -17 q-21 -58 -65 -163l-195 -459q-28 -67 -74 -203q-6 -18 -26 -18h-170q-19 0 -25 18q-46 136 -74 203l-194 459q-44 96 -68 163q-7 20 -18.5 17t-9.5 -23q20 -146 20 -393v-663q0 -23 -22 -23h-187q-22 0 -22 23z" />
<glyph unicode="N" horiz-adv-x="1470" d="M158 23v1386q0 23 22 23h246q17 0 27 -17q49 -110 108 -211l438 -723q45 -82 72 -137q7 -20 18.5 -15.5t8.5 23.5q-17 109 -17 281v776q0 23 23 23h186q23 0 23 -23v-1386q0 -23 -23 -23h-246q-16 0 -26 16q-41 98 -107 211l-438 723q-43 76 -72 137q-9 17 -20 13.5 t-8 -21.5q18 -138 18 -284v-772q0 -23 -22 -23h-189q-22 0 -22 23z" />
<glyph unicode="O" d="M104 717q0 340 166.5 537.5t456.5 197.5q289 0 456 -197.5t167 -537.5q0 -342 -167.5 -541t-455.5 -199q-290 0 -456.5 199t-166.5 541zM340 717q0 -247 102.5 -387t284.5 -140q181 0 283 140t102 387t-101.5 385.5t-283.5 138.5q-183 0 -285 -138t-102 -386z" />
<glyph unicode="P" horiz-adv-x="1296" d="M158 23v1386q0 23 22 23h522q233 0 363.5 -120.5t130.5 -334.5q0 -228 -151 -350.5t-435 -122.5h-221v-481q0 -23 -22 -23h-187q-22 0 -22 23zM389 709h221q171 0 261 69t90 199q0 117 -68.5 182.5t-190.5 65.5h-313v-516z" />
<glyph unicode="Q" horiz-adv-x="1454" d="M104 715q0 340 167.5 538.5t455.5 198.5t455.5 -198.5t167.5 -538.5q0 -211 -72.5 -371.5t-187.5 -220.5q-40 -19 0 -29q140 -47 251 -186l89 -119q6 -7 6 -14q0 -10 -11 -19l-137 -106q-8 -7 -15 -7q-10 0 -18 11l-92 121q-76 102 -178.5 152t-257.5 50 q-288 0 -455.5 199t-167.5 539zM340 715q0 -246 103 -385.5t284 -139.5t283 139.5t102 385.5q0 248 -102 387t-283 139q-182 0 -284.5 -139.5t-102.5 -386.5z" />
<glyph unicode="R" horiz-adv-x="1372" d="M158 23v1386q0 23 22 23h553q224 0 349.5 -110t125.5 -304q0 -134 -74 -229t-198 -140q-38 -17 -2 -37q116 -61 196 -237l146 -348q2 -5 2 -9q0 -6 -4 -10q-6 -8 -17 -8h-198q-17 0 -27 16l-110 265q-60 146 -145.5 212t-239.5 66h-148v-536q0 -23 -22 -23h-187 q-22 0 -22 23zM389 764h260q158 0 241 61.5t83 178.5q0 101 -65 161t-175 60h-344v-461z" />
<glyph unicode="S" horiz-adv-x="1243" d="M111 111l53 157q11 22 29 13l112 -37q168 -54 322 -54q123 0 200.5 49t77.5 148q0 117 -203 193l-229 86q-189 70 -265.5 160t-76.5 239q0 183 130 285t353 102q165 0 320 -51l119 -39q23 -10 14 -29l-55 -155q-11 -21 -29 -15l-109 35q-137 43 -260 43 q-111 0 -179 -48.5t-68 -127.5q0 -65 45 -112t153 -87l228 -84q186 -70 267 -158t81 -237q0 -196 -137 -303t-377 -107q-192 0 -396 70l-106 35q-17 7 -17 19q0 5 3 10z" />
<glyph unicode="T" horiz-adv-x="1308" d="M80 1247v162q0 23 22 23h1104q23 0 23 -23v-162q0 -22 -23 -22h-436v-1202q0 -23 -22 -23h-189q-22 0 -22 23v1202h-435q-22 0 -22 22z" />
<glyph unicode="U" horiz-adv-x="1376" d="M137 575v834q0 23 23 23h186q23 0 23 -23v-834q0 -184 83.5 -284.5t235.5 -100.5q151 0 234.5 100.5t83.5 284.5v834q0 23 22 23h189q22 0 22 -23v-834q0 -284 -145 -441t-406 -157t-406 157t-145 441z" />
<glyph unicode="V" horiz-adv-x="1437" d="M68 1405q-3 7 -3 12q0 15 21 15h197q18 0 24 -19l291 -733q73 -198 104 -365q2 -11 9.5 -15.5t15 0t8.5 15.5q31 167 107 365l288 733q6 19 25 19h199q21 0 21 -15q0 -5 -3 -12l-354 -897q-94 -252 -154 -490q-3 -18 -24 -18h-240q-22 0 -25 18q-71 264 -155 490z" />
<glyph unicode="W" horiz-adv-x="2037" d="M84 1407q-1 4 -1 7q-1 6 3 11q6 7 18 7h191q21 0 27 -19l206 -737q48 -177 62 -348q1 -10 8 -14t14.5 -0.5t8.5 14.5q22 176 71 348l223 737q6 19 27 19h152q20 0 26 -19l226 -737q55 -193 71 -348q1 -11 8 -14.5t13.5 0.5t7.5 14q14 165 63 348l205 737q6 19 27 19h192 q12 0 18 -7q4 -5 4 -11q0 -3 -1 -7l-283 -1022q-53 -195 -86 -365q-3 -20 -24 -20h-248q-22 0 -25 20q-32 172 -74 318l-145 485q-21 75 -35 168q-2 13 -8 18t-12 0t-8 -18q-2 -10 -37 -168l-146 -485q-45 -171 -73 -318q-3 -20 -25 -20h-248q-21 0 -24 20q-33 170 -86 365z " />
<glyph unicode="X" horiz-adv-x="1413" d="M118 8q-2 3 -1 7q0 6 4 12l315 534q58 103 133 148q18 14 0 26q-79 46 -129 144l-311 526q-7 11 -2.5 19t16.5 8h205q18 0 27 -15l311 -526q20 -38 41 0l309 524q8 17 27 17h207q12 0 16.5 -8t-2.5 -19l-309 -526q-53 -99 -131 -144q-8 -6 -8 -13.5t8 -12.5 q79 -48 133 -148l315 -534q4 -7 4 -12q0 -4 -2 -7q-4 -8 -16 -8h-207q-19 0 -27 14l-321 539q-6 12 -11.5 15.5t-11 0t-12.5 -15.5l-319 -539q-8 -14 -27 -14h-207q-13 0 -17 8z" />
<glyph unicode="Y" horiz-adv-x="1380" d="M72 1424q4 8 16 8h207q18 0 27 -15l221 -366q70 -118 131 -277q6 -15 17.5 -15t15.5 15q50 130 131 277l223 366q9 15 26 15h207q12 0 17 -8q2 -3 2 -7q0 -6 -4 -12l-303 -512q-66 -119 -92 -170t-57 -128.5t-40.5 -143t-9.5 -152.5v-276q0 -23 -23 -23h-188 q-23 0 -23 23v276q0 88 -9.5 154t-38.5 140.5t-57.5 130t-92.5 169.5l-301 512q-4 7 -4 12q0 4 2 7z" />
<glyph unicode="Z" horiz-adv-x="1271" d="M121 27q-4 7 -4.5 15t4.5 17q79 113 168 281l407 682q69 129 109 172q13 14 10 23.5t-20 9.5q-59 -2 -164 -2h-465q-23 0 -23 22v162q0 23 23 23h958q18 0 27 -17l6 -10q4 -8 4 -16t-4 -15q-99 -141 -168 -274l-411 -690q-56 -98 -113 -172q-12 -19 -8 -27t24 -6 q28 0 84.5 1t81.5 1h473q12 0 17.5 -7.5t1.5 -17.5l-45 -164q-6 -18 -27 -18h-913q-19 0 -27 16z" />
<glyph unicode="[" horiz-adv-x="737" d="M199 -182v1702q0 22 22 22h352q23 0 23 -22v-158q0 -23 -23 -23h-163v-1339h163q23 0 23 -23v-159q0 -23 -23 -23h-352q-22 0 -22 23z" />
<glyph unicode="\" horiz-adv-x="1069" d="M74 1518q-10 26 18 26h176q19 0 25 -18l682 -1704q10 -27 -19 -27h-174q-18 0 -24 19z" />
<glyph unicode="]" horiz-adv-x="737" d="M141 -23q0 23 23 23h164v1339h-164q-23 0 -23 23v158q0 22 23 22h352q23 0 23 -22v-1702q0 -23 -23 -23h-352q-23 0 -23 23v159z" />
<glyph unicode="^" horiz-adv-x="1038" d="M112 718q-5 7 1 19l305 662q10 16 26 16h150q17 0 27 -16l305 -662q6 -12 0.5 -19t-17.5 -7h-196q-19 0 -25 18l-168 410l-170 -410q-6 -18 -24 -18h-197q-12 0 -17 7z" />
<glyph unicode="_" horiz-adv-x="1046" d="M-27 -258q0 22 23 22h1057q22 0 22 -22v-158q0 -22 -22 -22h-1057q-23 0 -23 22v158z" />
<glyph unicode="`" horiz-adv-x="614" d="M112 1460q4 8 19 8h207q19 0 27 -16l139 -264q6 -12 1.5 -19.5t-18.5 -7.5h-151q-15 0 -27 15l-192 266q-9 10 -5 18z" />
<glyph unicode="a" horiz-adv-x="1054" d="M78 287q0 147 97 231t276 84h256v12q0 94 -59 143.5t-173 49.5q-87 0 -160 -21l-73 -22q-23 -6 -29 16l-45 152q-6 23 16 29l78 22q109 31 223 31q208 0 327.5 -103t119.5 -288v-600q0 -23 -23 -23h-102q-21 0 -27 18l-16 64q-6 15 -12.5 19.5t-15.5 1t-23 -16.5 q-98 -109 -281 -109q-169 0 -261.5 82t-92.5 228zM303 307q0 -60 40.5 -94.5t113.5 -34.5q122 0 186 59t64 173v14h-256q-73 0 -110.5 -31.5t-37.5 -85.5z" />
<glyph unicode="b" horiz-adv-x="1153" d="M137 129v1317q0 22 23 22h182q23 0 23 -22v-299q0 -139 -33 -229q-8 -22 3 -30t30 9q100 117 270 117q200 0 315 -138.5t115 -377.5q0 -242 -126 -381.5t-347 -139.5q-137 0 -256 52l-180 73q-19 10 -19 27zM362 248l62 -29q79 -35 168 -35q117 0 182.5 83t65.5 231 q0 146 -63.5 228.5t-174.5 82.5q-118 0 -179 -84t-61 -221v-256z" />
<glyph unicode="c" horiz-adv-x="970" d="M88 498q0 242 127 379t365 137q88 0 176 -25l88 -24q22 -6 16 -29l-47 -154q-7 -21 -27 -14l-69 18q-73 23 -137 23q-134 0 -200.5 -80.5t-66.5 -228.5q0 -151 66.5 -233.5t195.5 -82.5q68 0 152 23l68 20q21 6 28 -14l47 -154q1 -5 1 -9q0 -15 -17 -19l-90 -27 q-103 -27 -191 -27q-232 0 -358.5 139.5t-126.5 381.5z" />
<glyph unicode="d" horiz-adv-x="1153" d="M88 498q0 240 122 378t337 138q108 0 182 -35l59 -27v494q0 22 23 22h182q23 0 23 -22v-1423q0 -23 -23 -23h-102q-22 0 -25 18l-22 86q-3 9 -8.5 13t-14 1t-18.5 -14q-115 -127 -285 -127q-200 0 -315 140.5t-115 380.5zM313 498q0 -147 64 -230.5t178 -83.5 q112 0 174 83.5t62 217.5v260l-62 29q-75 35 -168 35q-117 0 -183 -82.5t-65 -228.5z" />
<glyph unicode="e" horiz-adv-x="1046" d="M88 496q0 241 126 379.5t349 138.5q184 0 289.5 -87t105.5 -239q0 -119 -73.5 -187t-227.5 -91l-321 -50q18 -83 78 -129.5t155 -46.5q97 0 162 21l90 22q23 6 29 -16l41 -154q6 -21 -17 -28l-94 -25q-111 -27 -209 -27q-229 0 -356 139t-127 380zM315 537l308 49 q110 18 110 98q0 61 -45 93t-129 32q-105 0 -168.5 -67.5t-75.5 -204.5z" />
<glyph unicode="f" horiz-adv-x="768" d="M86 813v158q0 22 23 22h100v133q0 171 94.5 268t261.5 97q59 0 135 -25l37 -12q16 -9 16 -21q0 -4 -1 -8l-50 -151q-7 -20 -26 -14l-33 10q-41 14 -78 14q-60 0 -94.5 -42.5t-34.5 -115.5v-133h230q22 0 22 -22v-158q0 -22 -22 -22h-230v-768q0 -23 -22 -23h-183 q-22 0 -22 23v768h-100q-23 0 -23 22z" />
<glyph unicode="g" horiz-adv-x="1142" d="M88 492q0 247 126 384.5t351 137.5q138 0 252 -47l182 -76q19 -6 19 -25v-858q0 -226 -128 -347.5t-364 -121.5q-127 0 -223 27l-100 28q-23 7 -17 29l47 152q7 21 27 14l80 -22q82 -23 176 -23q116 0 198.5 52t108.5 167q3 49 6.5 78.5t4.5 48.5q0 12 -8 15t-21 -9 q-109 -119 -283 -119q-201 0 -317.5 139.5t-116.5 375.5zM313 498q0 -142 62 -228t174 -86q117 0 179.5 81t62.5 229v251l-62 29q-68 35 -166 35q-119 0 -184.5 -81.5t-65.5 -229.5z" />
<glyph unicode="h" horiz-adv-x="1136" d="M137 23v1423q0 22 23 22h182q23 0 23 -22v-299q0 -134 -33 -234q-6 -18 2 -24.5t26 6.5q110 119 275 119q175 0 275 -103t100 -284v-604q0 -23 -23 -23h-182q-23 0 -23 23v579q0 98 -47 152.5t-131 54.5q-119 0 -178 -84t-61 -225v-477q0 -23 -23 -23h-182q-23 0 -23 23z " />
<glyph unicode="i" horiz-adv-x="573" d="M86 813v158q0 22 23 22h305q22 0 22 -22v-948q0 -23 -22 -23h-183q-22 0 -22 23v768h-100q-23 0 -23 22zM162 1348q0 64 36 100.5t101 36.5q64 0 99.5 -36t35.5 -101q0 -66 -35.5 -103t-99.5 -37q-65 0 -101 37t-36 103z" />
<glyph unicode="j" horiz-adv-x="573" d="M41 -303q-4 7 -4 13q0 10 12 18l47 32q113 73 113 197v834h-100q-23 0 -23 22v158q0 22 23 22h305q22 0 22 -22v-1014q0 -123 -56 -214t-175 -163l-51 -35q-8 -6 -15 -6q-10 0 -18 12zM164 1348q0 65 35.5 101t99.5 36t99.5 -36t35.5 -101q0 -66 -35.5 -103t-99.5 -37 t-99.5 37t-35.5 103z" />
<glyph unicode="k" horiz-adv-x="1095" d="M137 23v1423q0 22 23 22h182q23 0 23 -22v-842h30q36 0 66.5 13t59.5 42.5t45 50.5t44 62l135 207q11 14 29 14h201q13 0 17.5 -7.5t-1.5 -18.5l-180 -291q-85 -125 -178 -160q-6 -3 -6.5 -8t6.5 -8q113 -49 190 -166l189 -307q4 -6 4 -12q0 -4 -2 -7q-5 -8 -19 -8h-202 q-18 0 -29 14l-141 228q-51 78 -101 117.5t-127 39.5h-30v-376q0 -23 -23 -23h-182q-23 0 -23 23z" />
<glyph unicode="l" horiz-adv-x="583" d="M137 240v1206q0 22 23 22h182q23 0 23 -22v-1206q0 -56 41 -56h14q22 3 29 -12l61 -145q3 -7 3 -12q0 -12 -13 -19q-46 -19 -94 -19q-126 0 -197.5 69.5t-71.5 193.5z" />
<glyph unicode="m" horiz-adv-x="1722" d="M137 23v948q0 22 23 22h102q22 0 25 -20l18 -80q9 -19 19.5 -19t29.5 17q109 123 267 123q85 0 154 -37t112 -100q22 -20 35.5 -19.5t33.5 19.5q116 137 281 137q171 0 265.5 -102.5t94.5 -284.5v-604q0 -23 -22 -23h-184q-23 0 -23 23v579q0 99 -41 153t-121 54 q-114 0 -169.5 -81.5t-55.5 -227.5v-477q0 -23 -23 -23h-184q-22 0 -22 23v581q0 96 -42.5 150.5t-119.5 54.5q-115 0 -170 -81t-55 -228v-477q0 -23 -23 -23h-182q-23 0 -23 23z" />
<glyph unicode="n" horiz-adv-x="1136" d="M137 23v948q0 22 23 22h102q22 0 25 -20l18 -82q10 -18 19.5 -18t27.5 16q111 125 283 125q175 0 275 -103t100 -284v-604q0 -23 -23 -23h-182q-23 0 -23 23v579q0 97 -47.5 152t-130.5 55q-114 0 -176.5 -80t-62.5 -229v-477q0 -23 -23 -23h-182q-23 0 -23 23z" />
<glyph unicode="o" horiz-adv-x="1120" d="M88 498q0 237 127 376.5t346 139.5q218 0 344.5 -139.5t126.5 -376.5q0 -240 -126.5 -380.5t-344.5 -140.5q-219 0 -346 140.5t-127 380.5zM313 498q0 -148 65.5 -231t182.5 -83q114 0 180 83.5t66 230.5q0 146 -66 228.5t-180 82.5q-117 0 -182.5 -82.5t-65.5 -228.5z " />
<glyph unicode="p" horiz-adv-x="1153" d="M137 -418v1389q0 22 23 22h102q22 0 25 -18l22 -86q7 -17 17.5 -16.5t21.5 14.5q113 127 287 127q200 0 315 -138.5t115 -377.5q0 -242 -122 -381.5t-337 -139.5q-101 0 -186 39l-55 25v-459q0 -22 -23 -22h-182q-23 0 -23 22zM362 248l62 -29q69 -35 168 -35 q118 0 183 83t65 231q0 146 -64 228.5t-178 82.5q-113 0 -174.5 -84t-61.5 -221v-256z" />
<glyph unicode="q" horiz-adv-x="1142" d="M88 496q0 240 126 379t347 139q144 0 256 -49l180 -74q19 -9 19 -27v-1284q0 -22 -23 -22h-182q-23 0 -23 22v266q0 122 33 234q7 17 -2.5 24.5t-27.5 -8.5q-106 -119 -273 -119q-200 0 -315 139.5t-115 379.5zM313 496q0 -146 62 -229t172 -83q118 0 181 82t63 223v256 l-60 29q-86 35 -170 35q-118 0 -183 -82.5t-65 -230.5z" />
<glyph unicode="r" horiz-adv-x="806" d="M137 23v948q0 22 23 22h102q21 0 27 -18l33 -117q6 -12 11.5 -16.5t12.5 -2t16 12.5q63 81 138.5 120t185.5 42q23 0 23 -23v-160q0 -22 -23 -22q-168 -8 -244.5 -135t-76.5 -408v-243q0 -23 -23 -23h-182q-23 0 -23 23z" />
<glyph unicode="s" horiz-adv-x="974" d="M100 72l47 153q7 22 27 15l74 -21q119 -35 262 -35q74 0 116 27.5t42 75.5q0 37 -23 61t-74 39l-206 53q-128 32 -189 100.5t-61 178.5q0 139 98 217t276 78q129 0 254 -33l91 -23q22 -6 16 -28l-43 -154q-6 -22 -29 -16l-90 24q-86 25 -199 25q-70 0 -109.5 -24 t-39.5 -66q0 -68 92 -94l205 -54q133 -34 195.5 -103.5t62.5 -180.5q0 -145 -102 -227.5t-283 -82.5q-165 0 -313 43l-80 23q-18 6 -18 21q0 3 1 8z" />
<glyph unicode="t" horiz-adv-x="778" d="M86 813v158q0 22 23 22h100v236q0 18 18 24l183 62q6 1 10 1q16 0 16 -20v-303h230q22 0 22 -22v-158q0 -22 -22 -22h-230v-498q0 -52 21.5 -80.5t58.5 -28.5q29 0 53 9q22 10 31 -11l66 -139q9 -18 -11 -31q-65 -35 -139 -35q-146 0 -226.5 83t-80.5 233v498h-100 q-23 0 -23 22z" />
<glyph unicode="u" horiz-adv-x="1136" d="M127 367v604q0 22 23 22h182q22 0 22 -22v-580q0 -97 47.5 -152t130.5 -55q114 0 177 80.5t63 229.5v477q0 22 23 22h182q22 0 22 -22v-948q0 -23 -22 -23h-103q-21 0 -24 20l-19 82q-10 18 -19.5 18t-27.5 -16q-110 -124 -282 -124q-175 0 -275 103t-100 284z" />
<glyph unicode="v" horiz-adv-x="1126" d="M68 967q-2 5 -2 10t3 9q5 7 17 7h190q17 0 27 -16l146 -344q74 -198 98 -338q2 -11 9 -15.5t14 0t10 15.5q22 146 98 338l145 344q10 16 27 16h190q12 0 18 -7q3 -4 3 -10q0 -4 -2 -9l-203 -484q-110 -284 -158 -465q-6 -18 -26 -18h-217q-21 0 -27 18q-45 169 -158 465z " />
<glyph unicode="w" horiz-adv-x="1630" d="M82 969q-2 4 -2 8q0 5 3 9q5 7 17 7h185q20 0 26 -18l105 -359q45 -169 73 -327q2 -11 9 -15.5t14 0t10 15.5q13 52 99 362l108 324q6 18 25 18h123q18 0 24 -18l109 -324q67 -227 98 -362q3 -11 10 -15.5t14 0t9 15.5q25 142 73 327l105 359q6 18 27 18h184q12 0 17 -7 q3 -4 3 -9q0 -4 -2 -8l-168 -568q-73 -251 -104 -381q-3 -20 -25 -20h-225q-22 0 -25 18q-10 38 -31 110t-30 105l-74 218q-24 81 -37 149q-5 20 -14 19.5t-14 -19.5q-15 -82 -37 -149l-72 -218q-45 -144 -61 -213q-3 -20 -25 -20h-227q-22 0 -25 20q-27 111 -104 381z" />
<glyph unicode="x" horiz-adv-x="1097" d="M93 8q-2 4 -2 8q0 5 3 11l228 360q49 78 98 109q6 3 6 6q1 4 -2 7t-8.5 6t-7.5 5q-46 32 -86 94l-222 353q-6 11 -1 18.5t18 7.5h200q18 0 29 -14l186 -305q16 -26 33 0l187 305q11 14 28 14h201q13 0 17.5 -7.5t-1.5 -18.5l-221 -353q-51 -80 -96 -102q-7 -3 -7.5 -8 t5.5 -8q57 -37 98 -109l228 -360q3 -6 3 -11q0 -4 -2 -8q-5 -8 -18 -8h-203q-17 0 -28 14l-191 310q-17 22 -33 0l-190 -310q-11 -14 -29 -14h-202q-13 0 -18 8z" />
<glyph unicode="y" horiz-adv-x="1132" d="M68 967q-2 5 -2 10t3 9q5 7 17 7h190q17 0 27 -16l162 -387q64 -168 84 -299q3 -15 16 -15t17 17q26 141 88 297l159 387q10 16 27 16h191q12 0 17 -7q3 -4 3 -9t-2 -10l-563 -1389q-6 -18 -25 -18h-188q-12 0 -17.5 7t-1.5 19l109 258q27 72 30 142v22q0 60 -13 122 q-17 74 -56 175z" />
<glyph unicode="z" horiz-adv-x="985" d="M106 16q-4 8 -4 16t4 15q60 83 103 162l272 448q30 65 78 113q9 10 6.5 16.5t-16.5 6.5q-37 -2 -111 -2h-295q-22 0 -22 22v158q0 22 22 22h719q18 0 29 -14v-2q4 -8 4 -15q0 -9 -6 -16q-45 -64 -92 -151l-279 -461q-37 -65 -78 -111q-8 -9 -4.5 -15.5t15.5 -6.5 q21 0 58 1t54 1h297q12 0 17.5 -7.5t1.5 -17.5l-45 -160q-6 -18 -27 -18h-674q-19 0 -27 16z" />
<glyph unicode="{" horiz-adv-x="776" d="M117 592v158q0 22 22 22h15q50 0 78 31t28 86v309q0 164 96.5 259.5t266.5 101.5q22 0 22 -23v-158q0 -22 -22 -22q-72 -6 -112 -47.5t-40 -110.5v-309q0 -145 -100 -201q-29 -18 0 -35q100 -56 100 -204v-302q0 -72 40 -113.5t112 -47.5q22 0 22 -23v-158q0 -22 -22 -22 q-171 6 -267 101.5t-96 262.5v304q0 57 -28 87.5t-78 30.5h-15q-22 0 -22 23z" />
<glyph unicode="|" horiz-adv-x="606" d="M199 -420v1946q0 22 22 22h166q23 0 23 -22v-1946q0 -22 -23 -22h-166q-22 0 -22 22z" />
<glyph unicode="}" horiz-adv-x="776" d="M131 -37q0 23 23 23q72 6 111.5 47.5t39.5 113.5v302q0 148 101 204q29 17 0 35q-101 56 -101 201v309q0 69 -39.5 110.5t-111.5 47.5q-23 0 -23 22v158q0 23 23 23q170 -6 266 -101.5t96 -259.5v-309q0 -55 28.5 -86t78.5 -31h14q22 0 22 -22v-158q0 -23 -22 -23h-14 q-50 0 -78.5 -31t-28.5 -87v-304q0 -167 -95.5 -262.5t-266.5 -101.5q-23 0 -23 22v158z" />
<glyph unicode="~" horiz-adv-x="1144" d="M105.5 550.5q-4.5 7.5 3.5 18.5l98 170q82 138 223 138q82 0 145 -50l84 -69q32 -19 56 -19q42 0 59 39l47 80q11 14 29 14h172q13 0 17.5 -8t-3.5 -18l-98 -174q-76 -133 -221 -133q-81 0 -144 49l-92 69q-24 19 -47 19q-41 0 -63 -39l-47 -80q-11 -14 -29 -14h-172 q-13 0 -17.5 7.5z" />
<glyph unicode="&#xa2;" horiz-adv-x="966" d="M88 936q0 206 95 339.5t268 168.5v180q0 23 22 23h166q23 0 23 -23v-176q44 -6 90 -21l90 -24q22 -6 16 -29l-49 -151q-7 -22 -27 -15l-69 19q-73 20 -146 20q-126 0 -192 -82t-66 -229q0 -149 66.5 -231t191.5 -82q77 0 154 22l72 19q19 6 26 -15l47 -153q6 -23 -16 -29 l-90 -25q-47 -14 -98 -20v-180q0 -23 -23 -23h-166q-22 0 -22 23v186q-172 34 -267.5 167.5t-95.5 340.5z" />
<glyph unicode="&#xa3;" horiz-adv-x="1206" d="M68 606v160q0 22 22 22h166v209q0 213 124.5 334t338.5 121q116 0 227 -43l62 -20q23 -10 14 -29l-59 -154q-9 -21 -29 -14l-64 22q-83 27 -151 27q-108 0 -172 -64.5t-64 -179.5v-209h308q22 0 22 -22v-160q0 -22 -22 -22h-308v-144q0 -130 -51 -217q-7 -17 -1.5 -24 t20.5 -4q63 10 194 10h440q23 0 23 -23v-159q0 -23 -23 -23h-909q-18 0 -29 14l-8 13q-8 17 2 32l39 64q76 119 76 291v170h-166q-22 0 -22 22z" />
<glyph unicode="&#xa5;" horiz-adv-x="1400" d="M81.5 1424q4.5 8 16.5 8h207q18 0 27 -15l221 -366q70 -118 131 -277q6 -15 17 -15t16 15q50 130 131 277l223 366q9 15 27 15h207q12 0 16.5 -8t-2.5 -19l-303 -512l-74 -135h191q22 0 22 -23v-123q0 -22 -22 -22h-269q-22 -62 -33 -117h302q22 0 22 -22v-123 q0 -23 -22 -23h-316v-6v-276q0 -23 -22 -23h-189q-22 0 -22 23v276v6h-316q-22 0 -22 23v123q0 22 22 22h301q-12 61 -32 117h-269q-22 0 -22 22v123q0 23 22 23h191q-28 57 -74 135l-301 512q-7 11 -2.5 19z" />
<glyph unicode="&#xa8;" horiz-adv-x="784" d="M86 1358q0 60 33.5 94.5t91.5 34.5q60 0 93.5 -34.5t33.5 -94.5q0 -64 -33 -97.5t-94 -33.5q-59 0 -92 33.5t-33 97.5zM449 1358q0 60 33 94.5t91 34.5q60 0 93.5 -34.5t33.5 -94.5q0 -64 -33 -97.5t-94 -33.5q-59 0 -91.5 33.5t-32.5 97.5z" />
<glyph unicode="&#xa9;" horiz-adv-x="1615" d="M88 715q0 331 198 534t521 203q160 0 294 -53.5t227.5 -149t145.5 -233t52 -301.5q0 -219 -89 -386.5t-252.5 -259.5t-377.5 -92q-213 0 -376.5 92t-253 259.5t-89.5 386.5zM219 715q0 -272 162 -439t426 -167q265 0 427.5 167t162.5 439t-162.5 439t-427.5 167 q-264 0 -426 -167t-162 -439zM457 717q0 184 94.5 291.5t257.5 107.5q91 0 170 -26l41 -15q23 -7 14 -28l-26 -82q-11 -21 -29 -15l-41 15q-60 18 -129 18q-99 0 -155 -69.5t-56 -196.5t56 -197.5t155 -70.5q79 0 127 18l43 12q20 7 27 -14l28 -82q10 -22 -14 -29l-43 -12 q-79 -27 -168 -27q-162 0 -257 108.5t-95 293.5z" />
<glyph unicode="&#xab;" horiz-adv-x="1239" d="M139 496v6q0 17 8 28l250 342q12 15 27 15h197q15 0 19 -8.5t-5 -18.5l-262 -362l262 -363q9 -11 5 -18.5t-19 -7.5h-193q-16 0 -27 14l-254 344q-8 11 -8 29zM584 496v6q0 17 8 28l250 342q12 15 26 15h197q15 0 19 -8.5t-5 -18.5l-262 -362l262 -363q9 -11 5 -18.5 t-19 -7.5h-193q-15 0 -26 14l-254 344q-8 11 -8 29z" />
<glyph unicode="&#xad;" horiz-adv-x="894" d="M152 457v157q0 23 22 23h547q22 0 22 -23v-157q0 -23 -22 -23h-547q-22 0 -22 23z" />
<glyph unicode="&#xae;" horiz-adv-x="1615" d="M88 715q0 331 198 534t521 203q160 0 294 -53.5t227.5 -149t145.5 -233t52 -301.5q0 -219 -89 -386.5t-252.5 -259.5t-377.5 -92q-213 0 -376.5 92t-253 259.5t-89.5 386.5zM219 715q0 -272 162 -439t426 -167q265 0 427.5 167t162.5 439t-162.5 439t-427.5 167 q-264 0 -426 -167t-162 -439zM541 367v698q0 22 22 22h285q119 0 184.5 -58.5t65.5 -162.5q0 -71 -39.5 -119.5t-102.5 -68.5q-21 -8 -2 -19q73 -46 103 -124l71 -164q6 -12 1 -19.5t-17 -7.5h-96q-18 0 -27 18l-49 121q-33 74 -75 106t-124 32h-65v-254q0 -23 -23 -23h-90 q-22 0 -22 23zM676 741h127q78 0 122 29.5t44 85.5q0 52 -33 77t-88 25h-172v-217z" />
<glyph unicode="&#xb4;" horiz-adv-x="614" d="M111 1188l139 264q8 16 26 16h207q15 0 19.5 -8t-4.5 -18l-193 -266q-12 -15 -26 -15h-152q-29 0 -16 27z" />
<glyph unicode="&#xb8;" horiz-adv-x="641" d="M141 -408l35 107q10 23 29 14l26 -8q31 -8 60 -8q69 0 69 59q0 29 -19.5 44.5t-53.5 15.5h-72q-16 0 -27 14q-8 11 -2 29l52 153q6 19 24 19h88q12 0 17.5 -7.5t1.5 -19.5l-37 -88h14q70 0 116 -49t46 -131q0 -91 -57 -145t-160 -54q-47 0 -103 17l-34 12q-22 7 -13 26z " />
<glyph unicode="&#xbb;" horiz-adv-x="1239" d="M155 116.5q-4 7.5 5 18.5l262 363l-262 362q-9 10 -5 18.5t19 8.5h197q14 0 26 -15l250 -342q8 -11 8 -28v-6q0 -18 -8 -29l-254 -344q-11 -14 -26 -14h-193q-15 0 -19 7.5zM599 116.5q-4 7.5 5 18.5l262 363l-262 362q-9 10 -5 18.5t19 8.5h197q15 0 27 -15l250 -342 q8 -11 8 -28v-6q0 -18 -8 -29l-254 -344q-11 -14 -27 -14h-193q-15 0 -19 7.5z" />
<glyph unicode="&#x2c6;" horiz-adv-x="839" d="M113.5 1169.5q-3.5 8.5 5.5 18.5l190 266q11 14 27 14h168q15 0 26 -14l191 -266q9 -10 5.5 -18.5t-17.5 -8.5h-138q-16 0 -26 13l-125 141l-125 -141q-10 -13 -27 -13h-137q-14 0 -17.5 8.5z" />
<glyph unicode="&#x2da;" horiz-adv-x="550" d="M88 1315q0 80 49.5 126t138.5 46t139 -46t50 -126t-50 -125t-139 -45t-138.5 45t-49.5 125zM195 1315q0 -34 21 -53t60 -19t60.5 19t21.5 53t-21 52.5t-61 18.5q-81 0 -81 -71z" />
<glyph unicode="&#x2dc;" horiz-adv-x="866" d="M111 1274l47 94q28 57 66 83t95 26q58 0 109 -33l76 -47q24 -15 41 -15q23 0 45 37l20 33q8 16 27 16h102q14 0 18.5 -7t-1.5 -19l-47 -94q-53 -107 -162 -107q-57 0 -113 37l-72 39q-24 18 -43 18q-23 0 -43 -35l-20 -36q-8 -17 -27 -17h-102q-26 0 -16 27z" />
<glyph unicode="&#x400;" horiz-adv-x="1241" d="M158 23v1386q0 23 22 23h938q12 0 18 -7t3 -18l-45 -164q-6 -18 -27 -18h-678v-387h569q23 0 23 -23v-160q0 -22 -23 -22h-569v-426h729q23 0 23 -23v-161q0 -23 -23 -23h-938q-22 0 -22 23zM327.5 1836.5q3.5 8.5 18.5 8.5h248q18 0 29 -14l145 -215q8 -10 3.5 -18.5 t-17.5 -8.5h-179q-15 0 -28 13l-213 215q-10 11 -6.5 19.5z" />
<glyph unicode="&#x401;" horiz-adv-x="1241" d="M158 23v1386q0 23 22 23h938q12 0 18 -7t3 -18l-45 -164q-6 -18 -27 -18h-678v-387h569q23 0 23 -23v-160q0 -22 -23 -22h-569v-426h729q23 0 23 -23v-161q0 -23 -23 -23h-938q-22 0 -22 23zM324 1716q0 62 35 94.5t102 32.5q65 0 100 -33t35 -94t-35 -93t-100 -32 q-137 0 -137 125zM711 1716q0 62 35 94.5t102 32.5q65 0 100 -33t35 -94t-35 -93t-100 -32q-137 0 -137 125z" />
<glyph unicode="&#x402;" horiz-adv-x="1566" d="M35 1247v162q0 23 22 23h1114q23 0 23 -23v-162q0 -22 -23 -22h-491v-424l96 35q115 41 252 41q209 0 324.5 -116.5t115.5 -324.5q0 -217 -119 -338t-333 -121q-74 0 -162 23l-39 12q-22 6 -16 29l49 156q7 20 26 14l23 -6q56 -15 117 -15q103 0 161 63t58 173 q0 114 -59.5 177t-165.5 63q-102 0 -193 -31l-135 -51v-561q0 -23 -23 -23h-188q-23 0 -23 23v1202h-389q-22 0 -22 22z" />
<glyph unicode="&#x403;" horiz-adv-x="1185" d="M158 23v1386q0 23 22 23h891q12 0 18 -7t3 -18l-45 -164q-6 -18 -27 -18h-631v-1202q0 -23 -22 -23h-187q-22 0 -22 23zM451.5 1597.5q-4.5 8.5 3.5 18.5l145 215q11 14 29 14h248q15 0 19 -8.5t-7 -19.5l-213 -215q-13 -13 -29 -13h-178q-13 0 -17.5 8.5z" />
<glyph unicode="&#x404;" horiz-adv-x="1263" d="M104 717q0 340 168 537.5t461 197.5q91 0 157 -10t142 -37l90 -31q21 -7 15 -26l-54 -158q-7 -20 -26 -14l-92 30q-93 32 -232 35q-161 0 -261.5 -105.5t-123.5 -297.5h576q22 0 22 -23v-160q0 -22 -22 -22h-580q17 -212 118.5 -327.5t270.5 -115.5q127 0 234 37l90 31 q18 6 28 -14l56 -154q9 -22 -15 -29l-90 -30q-85 -30 -151.5 -42t-151.5 -12q-292 0 -460.5 199t-168.5 541z" />
<glyph unicode="&#x405;" horiz-adv-x="1243" d="M111 111l53 157q11 22 29 13l112 -37q168 -54 322 -54q123 0 200.5 49t77.5 148q0 117 -203 193l-229 86q-189 70 -265.5 160t-76.5 239q0 183 130 285t353 102q165 0 320 -51l119 -39q23 -10 14 -29l-55 -155q-11 -21 -29 -15l-109 35q-137 43 -260 43 q-111 0 -179 -48.5t-68 -127.5q0 -65 45 -112t153 -87l228 -84q186 -70 267 -158t81 -237q0 -196 -137 -303t-377 -107q-192 0 -396 70l-106 35q-23 10 -14 29z" />
<glyph unicode="&#x406;" horiz-adv-x="546" d="M158 23v1386q0 23 22 23h187q22 0 22 -23v-1386q0 -23 -22 -23h-187q-22 0 -22 23z" />
<glyph unicode="&#x407;" horiz-adv-x="546" d="M-55 1716q0 62 35 94.5t102 32.5q65 0 100 -33t35 -94t-35 -93t-100 -32q-137 0 -137 125zM158 23v1386q0 23 22 23h187q22 0 22 -23v-1386q0 -23 -22 -23h-187q-22 0 -22 23zM332 1716q0 62 35 94.5t102 32.5q65 0 100 -33t35 -94t-35 -93t-100 -32q-137 0 -137 125z " />
<glyph unicode="&#x408;" horiz-adv-x="921" d="M86 59l53 156q10 20 29 14l57 -18q54 -21 129 -21q83 0 132 60t49 180v979q0 23 22 23h186q23 0 23 -23v-979q0 -212 -109.5 -332.5t-302.5 -120.5q-97 0 -198 35l-58 19q-21 10 -12 28z" />
<glyph unicode="&#x409;" horiz-adv-x="2111" d="M35 139q-6 19 14 29l80 29q139 50 139 262v950q0 23 23 23h915q23 0 23 -23v-553h237q260 0 406.5 -115t146.5 -319q0 -199 -127.5 -310.5t-353.5 -111.5h-518q-23 0 -23 23v1202h-495v-766q0 -183 -73.5 -294t-231.5 -165l-82 -27q-18 -9 -29 13zM1229 207h309 q116 0 180 56t64 159q0 106 -83.5 166.5t-232.5 60.5h-237v-442z" />
<glyph unicode="&#x40a;" horiz-adv-x="2074" d="M158 23v1386q0 23 22 23h187q22 0 22 -23v-553h572v553q0 23 22 23h188q23 0 23 -23v-553h236q259 0 405.5 -115t146.5 -319q0 -199 -126.5 -310.5t-352.5 -111.5h-520q-22 0 -22 23v626h-572v-626q0 -23 -22 -23h-187q-22 0 -22 23zM1194 207h309q114 0 178 56.5 t64 158.5q0 106 -83 166.5t-232 60.5h-236v-442z" />
<glyph unicode="&#x40b;" horiz-adv-x="1568" d="M35 1247v162q0 23 22 23h1114q23 0 23 -23v-162q0 -22 -23 -22h-491v-426l88 32q113 43 246 43q203 0 316.5 -125.5t113.5 -349.5v-376q0 -23 -23 -23h-188q-23 0 -23 23v354q0 132 -60.5 208.5t-164.5 76.5q-93 0 -178 -31l-127 -49v-559q0 -23 -23 -23h-188 q-23 0 -23 23v1202h-389q-22 0 -22 22z" />
<glyph unicode="&#x40c;" horiz-adv-x="1366" d="M158 23v1386q0 23 22 23h187q22 0 22 -23v-571h45q105 0 205 76t172 194l190 309q12 15 29 15h205q12 0 16.5 -8t-2.5 -19l-239 -395q-57 -93 -132 -159.5t-153 -98.5q-11 -5 -11.5 -12.5t11.5 -12.5q173 -74 299 -281l256 -419q7 -11 2.5 -19t-18.5 -8h-207 q-18 0 -29 14l-203 328q-77 130 -178.5 210.5t-210.5 80.5h-47v-610q0 -23 -22 -23h-187q-22 0 -22 23zM553.5 1595.5q-4.5 8.5 3.5 18.5l145 215q11 14 29 14h248q15 0 19 -8.5t-7 -19.5l-213 -216q-12 -12 -28 -12h-179q-13 0 -17.5 8.5z" />
<glyph unicode="&#x40e;" horiz-adv-x="1396" d="M64.5 1424.5q4.5 7.5 17.5 7.5h203q17 0 26 -17l273 -522q85 -160 112 -268q3 -15 15 -15t18 15q65 177 109 268l252 522q10 17 26 17h203q26 0 16 -27l-501 -1040q-40 -85 -84.5 -148.5t-102.5 -114t-132 -76.5t-163 -26h-82q-22 0 -22 23v161q0 23 22 23h82 q86 0 137.5 54.5t51.5 133.5q0 51 -15.5 104t-64.5 146l-395 760q-6 12 -1.5 19.5zM428 1835v49q0 23 23 23h118q23 0 23 -23v-51q0 -48 28 -74t80 -26t80.5 26.5t28.5 73.5v51q0 23 22 23h119q23 0 23 -23v-49q0 -119 -72 -185.5t-201 -66.5q-128 0 -200 67t-72 185z" />
<glyph unicode="&#x40f;" horiz-adv-x="1402" d="M158 25v1386q0 23 22 23h187q22 0 22 -23v-1202h625v1202q0 23 22 23h187q22 0 22 -23v-1386q0 -23 -22 -23h-412v-364q0 -23 -23 -23h-176q-22 0 -22 23v364h-410q-22 0 -22 23z" />
<glyph unicode="&#x410;" horiz-adv-x="1478" d="M78 27l352 899q108 291 158 485q3 21 24 21h252q22 0 25 -19q53 -198 160 -487l352 -899q10 -27 -19 -27h-196q-19 0 -25 18l-100 256h-643l-101 -256q-6 -18 -24 -18h-197q-28 0 -18 27zM498 481h483l-109 269q-89 241 -116 378q-3 11 -10 15.5t-14 0t-9 -15.5 q-26 -134 -119 -378z" />
<glyph unicode="&#x411;" horiz-adv-x="1335" d="M158 23v1386q0 23 22 23h940q12 0 18 -7t3 -18l-47 -164q-6 -18 -27 -18h-678v-363h322q249 0 388.5 -115t139.5 -321q0 -201 -125 -313.5t-348 -112.5h-586q-22 0 -22 23zM389 207h375q112 0 174.5 58t62.5 161q0 109 -76 170t-212 61h-324v-450z" />
<glyph unicode="&#x412;" horiz-adv-x="1335" d="M158 23v1386q0 23 22 23h551q215 0 338 -97.5t123 -269.5q0 -118 -55.5 -195t-135.5 -110q-21 -6 -21 -17.5t21 -17.5q46 -14 86.5 -40.5t75.5 -66.5t55.5 -100t20.5 -131q0 -183 -125.5 -285t-349.5 -102h-584q-22 0 -22 23zM389 207h373q113 0 176 53t63 148 q0 225 -313 225h-299v-426zM389 838h283q139 0 211.5 53t72.5 151q0 85 -60.5 134t-164.5 49h-342v-387z" />
<glyph unicode="&#x413;" horiz-adv-x="1185" d="M158 23v1386q0 23 22 23h891q12 0 18 -7t3 -18l-45 -164q-6 -18 -27 -18h-631v-1202q0 -23 -22 -23h-187q-22 0 -22 23z" />
<glyph unicode="&#x414;" horiz-adv-x="1587" d="M74 184q0 23 22 23h103l100 196q57 111 57 316v690q0 23 23 23h936q22 0 22 -23v-1202h136q22 0 22 -23v-546q0 -23 -22 -23h-177q-22 0 -22 23v362h-981v-362q0 -23 -23 -23h-174q-22 0 -22 23v546zM455 207h649v1018h-514v-506q0 -243 -86 -410z" />
<glyph unicode="&#x415;" horiz-adv-x="1241" d="M158 23v1386q0 23 22 23h938q12 0 18 -7t3 -18l-45 -164q-6 -18 -27 -18h-678v-387h569q23 0 23 -23v-160q0 -22 -23 -22h-569v-426h729q23 0 23 -23v-161q0 -23 -23 -23h-938q-22 0 -22 23z" />
<glyph unicode="&#x416;" horiz-adv-x="1955" d="M100.5 7.5q-4.5 7.5 1.5 19.5l236 450q105 186 235 248q9 3 9 12t-9 13q-131 54 -223 223l-227 432q-13 27 16 27h201q18 0 27 -17l168 -307q29 -54 54 -93t62 -84t80.5 -69t89.5 -24h41v571q0 23 23 23h186q23 0 23 -23v-571h41q46 0 89 23.5t81 70t62 83t56 93.5 l168 307q9 17 27 17h201q29 0 16 -27l-227 -432q-92 -169 -226 -223q-9 -4 -9 -13t9 -12q127 -61 236 -248l235 -450q13 -27 -16 -27h-201q-18 0 -26 16l-178 326q-23 43 -32 59t-33 55.5t-38 57t-39 45.5t-46.5 40.5t-50 23t-58.5 10.5h-41v-610q0 -23 -23 -23h-186 q-23 0 -23 23v610h-43q-29 0 -57.5 -10.5t-49.5 -23t-46 -40.5t-39.5 -45.5t-38 -57t-32.5 -55.5t-32 -59l-178 -326q-8 -16 -27 -16h-200q-14 0 -18.5 7.5z" />
<glyph unicode="&#x417;" horiz-adv-x="1282" d="M123 100l55 154q9 21 29 14l129 -39q124 -41 274 -41t238 58.5t88 163.5q0 112 -85.5 167.5t-232.5 55.5h-184q-22 0 -22 22v160q0 23 22 23h182q124 0 197.5 55.5t73.5 144.5q0 93 -74 148t-203 55q-153 0 -274 -39l-113 -37q-18 -6 -28 15l-56 155q-9 22 15 29l114 37 q161 51 348 51q231 0 366.5 -105t135.5 -284q0 -208 -205 -307q-11 -5 -15 -11t0 -12t15 -10q121 -41 188.5 -125t67.5 -205q0 -185 -150.5 -300.5t-404.5 -115.5q-170 0 -348 54l-129 41q-23 7 -14 28z" />
<glyph unicode="&#x418;" horiz-adv-x="1470" d="M158 23v1386q0 23 22 23h189q22 0 22 -23v-772q0 -147 -18 -285q-3 -18 8 -21.5t20 13.5q29 61 72 137l438 723q66 113 107 211q10 17 26 17h246q23 0 23 -23v-1386q0 -23 -23 -23h-186q-23 0 -23 23v776q0 171 17 280q3 19 -8.5 23.5t-18.5 -15.5q-27 -55 -72 -137 l-438 -723q-59 -101 -108 -211q-10 -16 -27 -16h-246q-22 0 -22 23z" />
<glyph unicode="&#x419;" horiz-adv-x="1470" d="M158 23v1386q0 23 22 23h189q22 0 22 -23v-772q0 -147 -18 -285q-3 -18 8 -21.5t20 13.5q29 61 72 137l438 723q66 113 107 211q10 17 26 17h246q23 0 23 -23v-1386q0 -23 -23 -23h-186q-23 0 -23 23v776q0 171 17 280q3 19 -8.5 23.5t-18.5 -15.5q-27 -55 -72 -137 l-438 -723q-59 -101 -108 -211q-10 -16 -27 -16h-246q-22 0 -22 23zM461 1794v25q0 22 22 22h135q23 0 23 -22v-19q0 -86 104 -86q103 0 103 86v19q0 22 22 22h136q22 0 22 -22v-25q0 -117 -70 -173t-213 -56q-146 0 -215 56t-69 173z" />
<glyph unicode="&#x41a;" horiz-adv-x="1366" d="M158 23v1386q0 23 22 23h187q22 0 22 -23v-571h45q105 0 205 76t172 194l190 309q12 15 29 15h205q12 0 16.5 -8t-2.5 -19l-239 -395q-57 -93 -132 -159.5t-153 -98.5q-11 -5 -11.5 -12.5t11.5 -12.5q173 -74 299 -281l256 -419q7 -11 2.5 -19t-18.5 -8h-207 q-18 0 -29 14l-203 328q-77 130 -178.5 210.5t-210.5 80.5h-47v-610q0 -23 -22 -23h-187q-22 0 -22 23z" />
<glyph unicode="&#x41b;" horiz-adv-x="1456" d="M37 127q-7 23 10 31l74 39q101 57 149.5 183.5t48.5 336.5v692q0 23 23 23h936q22 0 22 -23v-1386q0 -23 -22 -23h-188q-23 0 -23 23v1202h-514v-508q0 -271 -83.5 -443t-260.5 -266l-72 -39q-20 -13 -31 8z" />
<glyph unicode="&#x41c;" horiz-adv-x="1687" d="M158 23v1386q0 23 22 23h287q21 0 27 -19q23 -85 51 -151l205 -492q41 -104 79 -238q3 -11 9 -15.5t11.5 0t8.5 15.5q38 136 76 238l207 490q34 81 55 153q3 19 25 19h286q23 0 23 -23v-1386q0 -23 -23 -23h-186q-23 0 -23 23v663q0 254 19 393q3 20 -9.5 23t-19.5 -17 q-21 -58 -65 -163l-195 -459q-28 -67 -74 -203q-6 -18 -26 -18h-170q-19 0 -25 18q-46 136 -74 203l-194 459q-44 96 -68 163q-7 20 -18.5 17t-9.5 -23q20 -146 20 -393v-663q0 -23 -22 -23h-187q-22 0 -22 23z" />
<glyph unicode="&#x41d;" horiz-adv-x="1437" d="M158 23v1386q0 23 22 23h187q22 0 22 -23v-571h658v571q0 23 22 23h188q23 0 23 -23v-1386q0 -23 -23 -23h-188q-22 0 -22 23v610h-658v-610q0 -23 -22 -23h-187q-22 0 -22 23z" />
<glyph unicode="&#x41e;" d="M104 717q0 340 166.5 537.5t456.5 197.5q289 0 456 -197.5t167 -537.5q0 -342 -167.5 -541t-455.5 -199q-290 0 -456.5 199t-166.5 541zM340 717q0 -247 102.5 -387t284.5 -140q181 0 283 140t102 387t-101.5 385.5t-283.5 138.5q-183 0 -285 -138t-102 -386z" />
<glyph unicode="&#x41f;" horiz-adv-x="1402" d="M158 23v1386q0 23 22 23h1043q22 0 22 -23v-1386q0 -23 -22 -23h-187q-22 0 -22 23v1202h-625v-1202q0 -23 -22 -23h-187q-22 0 -22 23z" />
<glyph unicode="&#x420;" horiz-adv-x="1296" d="M158 23v1386q0 23 22 23h522q233 0 363.5 -120.5t130.5 -334.5q0 -228 -151 -350.5t-435 -122.5h-221v-481q0 -23 -22 -23h-187q-22 0 -22 23zM389 709h221q171 0 261 69t90 199q0 117 -68.5 182.5t-190.5 65.5h-313v-516z" />
<glyph unicode="&#x421;" horiz-adv-x="1263" d="M104 717q0 340 168 537.5t461 197.5q91 0 157 -10t142 -37l90 -31q21 -7 15 -26l-54 -158q-7 -20 -26 -14l-92 30q-93 32 -232 35q-186 0 -289.5 -138t-103.5 -386q0 -250 103.5 -388.5t289.5 -138.5q127 0 234 37l90 31q18 6 28 -14l56 -154q9 -22 -15 -29l-90 -30 q-85 -30 -151.5 -42t-151.5 -12q-292 0 -460.5 199t-168.5 541z" />
<glyph unicode="&#x422;" horiz-adv-x="1308" d="M80 1247v162q0 23 22 23h1104q23 0 23 -23v-162q0 -22 -23 -22h-436v-1202q0 -23 -22 -23h-189q-22 0 -22 23v1202h-435q-22 0 -22 22z" />
<glyph unicode="&#x423;" horiz-adv-x="1396" d="M64.5 1424.5q4.5 7.5 17.5 7.5h203q17 0 26 -17l273 -522q85 -160 112 -268q3 -15 15 -15t18 15q65 177 109 268l252 522q10 17 26 17h203q26 0 16 -27l-501 -1040q-40 -85 -84.5 -148.5t-102.5 -114t-132 -76.5t-163 -26h-82q-22 0 -22 23v161q0 23 22 23h82 q86 0 137.5 54.5t51.5 133.5q0 51 -15.5 104t-64.5 146l-395 760q-6 12 -1.5 19.5z" />
<glyph unicode="&#x424;" horiz-adv-x="1771" d="M94 725q0 253 142.5 395t396.5 142h135v147q0 23 23 23h188q22 0 22 -23v-147h138q254 0 396 -142t142 -395t-142 -395t-396 -142h-138v-165q0 -23 -22 -23h-188q-23 0 -23 23v165h-135q-254 0 -396.5 142t-142.5 395zM330 725q0 -156 80.5 -244t222.5 -88h135v662h-135 q-141 0 -222 -87.5t-81 -242.5zM1001 393h138q142 0 222.5 88t80.5 244q0 155 -81 242.5t-222 87.5h-138v-662z" />
<glyph unicode="&#x425;" horiz-adv-x="1413" d="M118.5 8q-4.5 8 2.5 19l315 534q58 103 133 148q18 14 0 26q-79 46 -129 144l-311 526q-7 11 -2.5 19t16.5 8h205q18 0 27 -15l311 -526q20 -38 41 0l309 524q8 17 27 17h207q12 0 16.5 -8t-2.5 -19l-309 -526q-53 -99 -131 -144q-8 -6 -8 -13.5t8 -12.5q79 -48 133 -148 l315 -534q7 -11 2.5 -19t-16.5 -8h-207q-19 0 -27 14l-321 539q-6 12 -11.5 15.5t-11 0t-12.5 -15.5l-319 -539q-8 -14 -27 -14h-207q-12 0 -16.5 8z" />
<glyph unicode="&#x426;" horiz-adv-x="1488" d="M158 23v1386q0 23 22 23h187q22 0 22 -23v-1202h625v1202q0 23 22 23h187q22 0 22 -23v-1202h131q23 0 23 -23v-546q0 -23 -23 -23h-176q-22 0 -22 23v362h-998q-22 0 -22 23z" />
<glyph unicode="&#x427;" horiz-adv-x="1339" d="M119 965v444q0 23 22 23h187q22 0 22 -23v-405q0 -147 63.5 -222t186.5 -75q104 0 203 30l147 49v623q0 23 23 23h188q23 0 23 -23v-1386q0 -23 -23 -23h-188q-23 0 -23 23v546l-102 -34q-119 -41 -268 -41q-219 0 -340 124.5t-121 346.5z" />
<glyph unicode="&#x428;" horiz-adv-x="1933" d="M158 23v1386q0 23 22 23h187q22 0 22 -23v-1202h461v1202q0 23 22 23h189q22 0 22 -23v-1202h461v1202q0 23 23 23h188q23 0 23 -23v-1386q0 -23 -23 -23h-1575q-22 0 -22 23z" />
<glyph unicode="&#x429;" horiz-adv-x="2019" d="M158 23v1386q0 23 22 23h187q22 0 22 -23v-1202h461v1202q0 23 22 23h189q22 0 22 -23v-1202h461v1202q0 23 23 23h188q23 0 23 -23v-1202h129q22 0 22 -23v-546q0 -23 -22 -23h-176q-23 0 -23 23v362h-1528q-22 0 -22 23z" />
<glyph unicode="&#x42a;" horiz-adv-x="1572" d="M35 1247v162q0 23 22 23h592q23 0 23 -23v-481h221q284 0 435 -122.5t151 -350.5q0 -214 -130.5 -334.5t-363.5 -120.5h-522q-23 0 -23 23v1202h-383q-22 0 -22 22zM672 207h313q122 0 190 65.5t68 182.5q0 130 -89.5 199t-260.5 69h-221v-516z" />
<glyph unicode="&#x42b;" horiz-adv-x="1775" d="M158 23v1386q0 23 22 23h187q22 0 22 -23v-481h221q284 0 435 -122.5t151 -350.5q0 -214 -130.5 -334.5t-363.5 -120.5h-522q-22 0 -22 23zM389 207h313q122 0 190.5 65.5t68.5 182.5q0 130 -90 199t-261 69h-221v-516zM1386 23v1386q0 23 23 23h186q23 0 23 -23v-1386 q0 -23 -23 -23h-186q-23 0 -23 23z" />
<glyph unicode="&#x42c;" horiz-adv-x="1290" d="M158 23v1386q0 23 22 23h187q22 0 22 -23v-481h221q284 0 435 -122.5t151 -350.5q0 -214 -130.5 -334.5t-363.5 -120.5h-522q-22 0 -22 23zM389 207h313q122 0 190.5 65.5t68.5 182.5q0 130 -90 199t-261 69h-221v-516z" />
<glyph unicode="&#x42d;" horiz-adv-x="1263" d="M123 90l55 154q10 20 29 14l90 -31q107 -37 233 -37q169 0 271 115.5t119 327.5h-580q-23 0 -23 22v160q0 23 23 23h575q-23 192 -123.5 297.5t-261.5 105.5q-138 -3 -231 -35l-92 -30q-20 -7 -27 14l-53 158q-6 19 14 26l90 31q76 27 142 37t157 10q293 0 461 -197.5 t168 -537.5q0 -342 -168.5 -541t-460.5 -199q-85 0 -151.5 12t-151.5 42l-90 30q-24 7 -14 29z" />
<glyph unicode="&#x42e;" horiz-adv-x="1990" d="M158 23v1386q0 23 22 23h187q22 0 22 -23v-571h260q29 287 191.5 450.5t425.5 163.5q288 0 455 -197.5t167 -537.5q0 -342 -167 -541t-455 -199q-270 0 -434.5 175t-186.5 481h-256v-610q0 -23 -22 -23h-187q-22 0 -22 23zM879 717q0 -247 102.5 -387t284.5 -140 q181 0 283 140t102 387t-101.5 385.5t-283.5 138.5q-183 0 -285 -138t-102 -386z" />
<glyph unicode="&#x42f;" horiz-adv-x="1372" d="M96 27l146 348q80 176 196 237q36 20 -2 37q-124 45 -198 140t-74 229q0 194 125.5 304t349.5 110h553q22 0 22 -23v-1386q0 -23 -22 -23h-186q-23 0 -23 23v536h-147q-154 0 -239.5 -66t-145.5 -212l-111 -265q-10 -16 -27 -16h-198q-12 0 -17.5 7.5t-1.5 19.5z M399 1004q0 -117 83 -178.5t241 -61.5h260v461h-344q-110 0 -175 -60t-65 -161z" />
<glyph unicode="&#x430;" horiz-adv-x="1054" d="M78 287q0 147 97 231t276 84h256v12q0 94 -59 143.5t-173 49.5q-87 0 -160 -21l-73 -22q-23 -6 -29 16l-45 152q-6 23 16 29l78 22q109 31 223 31q208 0 327.5 -103t119.5 -288v-600q0 -23 -23 -23h-102q-21 0 -27 18l-16 64q-6 15 -12.5 19.5t-15.5 1t-23 -16.5 q-98 -109 -281 -109q-169 0 -261.5 82t-92.5 228zM303 307q0 -60 40.5 -94.5t113.5 -34.5q122 0 186 59t64 173v14h-256q-73 0 -110.5 -31.5t-37.5 -85.5z" />
<glyph unicode="&#x431;" horiz-adv-x="1150" d="M119 469v330q0 233 103 375.5t321 209.5l323 101q22 6 29 -17l47 -155q7 -20 -14 -27l-326 -100q-119 -38 -184.5 -110t-87.5 -187q-7 -24 4 -32t28 7q105 94 267 94q198 0 316 -130.5t118 -356.5t-128 -358.5t-345 -132.5q-221 0 -346 130.5t-125 358.5zM344 469 q0 -133 66 -209t182 -76q115 0 180.5 75.5t65.5 209.5q0 135 -65 210t-181 75t-182 -75.5t-66 -209.5z" />
<glyph unicode="&#x432;" horiz-adv-x="1052" d="M137 23v948q0 22 23 22h413q166 0 261.5 -71.5t95.5 -198.5q0 -81 -39 -132.5t-86 -68.5q-11 -4 -15 -9t-0.5 -10t13.5 -9q27 -9 52 -23.5t52 -39.5t43.5 -65t16.5 -90q0 -130 -97 -203t-268 -73h-442q-23 0 -23 23zM362 203h250q61 0 95 26t34 72q0 51 -43 78t-123 27 h-213v-203zM362 598h197q72 0 111 26.5t39 73.5q0 43 -30 68t-81 25h-236v-193z" />
<glyph unicode="&#x433;" horiz-adv-x="921" d="M137 23v948q0 22 23 22h665q12 0 17.5 -7t1.5 -17l-45 -160q-6 -18 -27 -18h-407v-768q0 -23 -23 -23h-182q-23 0 -23 23z" />
<glyph unicode="&#x434;" horiz-adv-x="1245" d="M59 180q0 23 23 23h84l51 106q45 96 45 269v393q0 22 23 22h735q22 0 22 -22v-768h103q22 0 22 -23v-477q0 -22 -22 -22h-166q-23 0 -23 22v297h-686v-297q0 -22 -22 -22h-166q-23 0 -23 22v477zM406 203h409v588h-326v-213q0 -196 -55 -312z" />
<glyph unicode="&#x435;" horiz-adv-x="1046" d="M88 496q0 241 126 379.5t349 138.5q184 0 289.5 -87t105.5 -239q0 -119 -73.5 -187t-227.5 -91l-321 -50q18 -83 78 -129.5t155 -46.5q97 0 162 21l90 22q23 6 29 -16l41 -154q6 -21 -17 -28l-94 -25q-111 -27 -209 -27q-229 0 -356 139t-127 380zM315 537l308 49 q110 18 110 98q0 61 -45 93t-129 32q-105 0 -168.5 -67.5t-75.5 -204.5z" />
<glyph unicode="&#x436;" horiz-adv-x="1566" d="M98.5 7.5q-4.5 7.5 1.5 19.5l160 292q37 68 77.5 110t92.5 65q9 4 9 10.5t-9 9.5q-88 38 -160 170l-153 283q-13 26 16 26h197q18 0 26 -16l111 -199q40 -72 87 -123t93 -51h23v367q0 22 22 22h182q23 0 23 -22v-367h25q45 0 92 51.5t86 122.5l108 199q8 16 27 16h199 q29 0 16 -26l-154 -283q-73 -135 -159 -170q-9 -3 -8.5 -9t8.5 -11q53 -23 92.5 -64.5t77.5 -110.5l159 -292q6 -12 1.5 -19.5t-17.5 -7.5h-197q-18 0 -26 16l-142 256q-74 127 -157 127h-31v-376q0 -23 -23 -23h-182q-22 0 -22 23v376h-31q-42 0 -84 -35t-74 -92l-141 -256 q-8 -16 -27 -16h-196q-14 0 -18.5 7.5z" />
<glyph unicode="&#x437;" horiz-adv-x="991" d="M100 63l45 154q6 19 27 16l100 -24q98 -25 203 -25q93 0 149 31.5t56 85.5q0 48 -54.5 78.5t-142.5 30.5h-145q-23 0 -23 22v143q0 23 23 23h145q73 0 116.5 29.5t43.5 79.5q0 46 -47 75t-123 29q-101 0 -201 -23l-88 -22q-21 -6 -28 14l-43 154q-6 23 16 29l96 24 q113 29 248 29q182 0 286.5 -77t104.5 -208q0 -73 -34.5 -128.5t-108.5 -80.5q-12 -4 -12 -12t12 -12q182 -55 182 -222q0 -137 -114 -218t-314 -81q-111 0 -256 33l-102 25q-23 7 -17 28z" />
<glyph unicode="&#x438;" horiz-adv-x="1163" d="M137 23v948q0 22 23 22h184q23 0 23 -22v-387q0 -123 -21 -258q-2 -13 8 -16.5t17 12.5q6 12 27.5 51.5t31.5 60.5l246 395q45 85 72 148q6 16 24 16h234q22 0 22 -22v-948q0 -23 -22 -23h-183q-22 0 -22 23v385q0 155 16 258q3 14 -6.5 18t-15.5 -12l-62 -115l-246 -393 q-44 -83 -71 -146q-6 -18 -25 -18h-231q-23 0 -23 23z" />
<glyph unicode="&#x439;" horiz-adv-x="1163" d="M137 23v948q0 22 23 22h184q23 0 23 -22v-387q0 -123 -21 -258q-2 -13 8 -16.5t17 12.5q6 12 27.5 51.5t31.5 60.5l246 395q45 85 72 148q6 16 24 16h234q22 0 22 -22v-948q0 -23 -22 -23h-183q-22 0 -22 23v385q0 155 16 258q3 14 -6.5 18t-15.5 -12l-62 -115l-246 -393 q-44 -83 -71 -146q-6 -18 -25 -18h-231q-23 0 -23 23zM311 1397v49q0 22 23 22h119q22 0 22 -22v-51q0 -48 28.5 -74.5t80.5 -26.5t80 26.5t28 74.5v51q0 22 23 22h119q22 0 22 -22v-49q0 -119 -71.5 -185.5t-200.5 -66.5q-128 0 -200.5 67t-72.5 185z" />
<glyph unicode="&#x43a;" horiz-adv-x="1095" d="M137 23v948q0 22 23 22h182q23 0 23 -22v-367h30q36 0 66.5 13t59.5 42.5t45 50.5t44 62l135 207q11 14 29 14h201q13 0 17.5 -7.5t-1.5 -18.5l-180 -291q-85 -125 -178 -160q-6 -3 -6.5 -8t6.5 -8q113 -49 190 -166l189 -307q7 -11 2 -19t-19 -8h-202q-18 0 -29 14 l-141 228q-51 78 -101 117.5t-127 39.5h-30v-376q0 -23 -23 -23h-182q-23 0 -23 23z" />
<glyph unicode="&#x43b;" horiz-adv-x="1169" d="M43 131q-10 23 10 31l60 28q139 75 139 302v479q0 22 22 22h736q22 0 22 -22v-948q0 -23 -22 -23h-183q-22 0 -22 23v768h-326v-299q0 -179 -67 -297.5t-211 -190.5l-60 -29q-20 -9 -30 11z" />
<glyph unicode="&#x43c;" horiz-adv-x="1325" d="M137 23v948q0 22 23 22h266q22 0 25 -20q14 -53 32 -96l117 -259q38 -107 51 -165q2 -9 6.5 -12t8.5 0t6 12t51 165l119 259q18 43 32 96q3 20 25 20h266q23 0 23 -22v-948q0 -23 -23 -23h-182q-22 0 -22 23v301q0 227 16 348q2 14 -7.5 16.5t-13.5 -10.5 q-18 -39 -45 -107l-118 -260q-26 -60 -39 -110q-3 -19 -25 -19h-135q-22 0 -25 19q-10 39 -39 110l-118 260l-45 107q-4 13 -14 10.5t-7 -16.5q19 -124 19 -348v-301q0 -23 -23 -23h-182q-23 0 -23 23z" />
<glyph unicode="&#x43d;" horiz-adv-x="1128" d="M137 23v948q0 22 23 22h182q23 0 23 -22v-367h397v367q0 22 22 22h185q22 0 22 -22v-948q0 -23 -22 -23h-185q-22 0 -22 23v378h-397v-378q0 -23 -23 -23h-182q-23 0 -23 23z" />
<glyph unicode="&#x43e;" horiz-adv-x="1120" d="M88 498q0 237 127 376.5t346 139.5q218 0 344.5 -139.5t126.5 -376.5q0 -240 -126.5 -380.5t-344.5 -140.5q-219 0 -346 140.5t-127 380.5zM313 498q0 -148 65.5 -231t182.5 -83q114 0 180 83.5t66 230.5q0 146 -66 228.5t-180 82.5q-117 0 -182.5 -82.5t-65.5 -228.5z " />
<glyph unicode="&#x43f;" horiz-adv-x="1116" d="M137 23v948q0 22 23 22h798q23 0 23 -22v-948q0 -23 -23 -23h-184q-22 0 -22 23v768h-387v-768q0 -23 -23 -23h-182q-23 0 -23 23z" />
<glyph unicode="&#x440;" horiz-adv-x="1153" d="M137 -418v1389q0 22 23 22h102q22 0 25 -18l22 -86q7 -17 17.5 -16.5t21.5 14.5q113 127 287 127q200 0 315 -138.5t115 -377.5q0 -242 -122 -381.5t-337 -139.5q-101 0 -186 39l-55 25v-459q0 -22 -23 -22h-182q-23 0 -23 22zM362 248l62 -29q69 -35 168 -35 q118 0 183 83t65 231q0 146 -64 228.5t-178 82.5q-113 0 -174.5 -84t-61.5 -221v-256z" />
<glyph unicode="&#x441;" horiz-adv-x="970" d="M88 498q0 242 127 379t365 137q88 0 176 -25l88 -24q22 -6 16 -29l-47 -154q-7 -21 -27 -14l-69 18q-73 23 -137 23q-134 0 -200.5 -80.5t-66.5 -228.5q0 -151 66.5 -233.5t195.5 -82.5q68 0 152 23l68 20q21 6 28 -14l47 -154q6 -22 -16 -28l-90 -27q-103 -27 -191 -27 q-232 0 -358.5 139.5t-126.5 381.5z" />
<glyph unicode="&#x442;" horiz-adv-x="1024" d="M74 813v158q0 22 22 22h832q22 0 22 -22v-158q0 -22 -22 -22h-301v-768q0 -23 -23 -23h-184q-23 0 -23 23v768h-301q-22 0 -22 22z" />
<glyph unicode="&#x443;" horiz-adv-x="1148" d="M69 986q5 7 17 7h193q16 0 26 -16l184 -418q56 -132 78 -260q3 -12 10 -16.5t13.5 0t9.5 16.5q24 129 74 260l172 416q6 18 24 18h193q12 0 17 -7t1 -19l-442 -1076q-66 -171 -166 -251t-250 -80h-76q-22 0 -22 22v158q0 22 22 22h68q66 0 106 28t68 93l31 72 q14 32 15.5 70t-9 85t-28.5 97t-48 119l-280 641q-6 12 -1 19z" />
<glyph unicode="&#x444;" horiz-adv-x="1658" d="M98 498q0 239 110 377.5t304 138.5q83 0 156 -37l47 -25v494q0 22 22 22h185q22 0 22 -22v-494l49 25q70 37 154 37q194 0 304 -138.5t110 -377.5q0 -242 -110 -381.5t-304 -139.5q-81 0 -154 39l-49 25v-459q0 -22 -22 -22h-185q-22 0 -22 22v459l-47 -25 q-83 -39 -156 -39q-194 0 -304 139.5t-110 381.5zM324 498q0 -148 53 -231t149 -83q84 0 140 35l51 29v497l-51 29q-56 35 -140 35q-96 0 -149 -82t-53 -229zM942 248l51 -29q65 -35 140 -35q96 0 149 83t53 231q0 147 -53 229t-149 82q-75 0 -140 -35l-51 -29v-497z" />
<glyph unicode="&#x445;" horiz-adv-x="1097" d="M93 8q-5 8 1 19l228 360q49 78 98 109q6 3 6 6q1 4 -2 7t-8.5 6t-7.5 5q-46 32 -86 94l-222 353q-6 11 -1 18.5t18 7.5h200q18 0 29 -14l186 -305q16 -26 33 0l187 305q11 14 28 14h201q13 0 17.5 -7.5t-1.5 -18.5l-221 -353q-51 -80 -96 -102q-7 -3 -7.5 -8t5.5 -8 q57 -37 98 -109l228 -360q6 -11 1 -19t-18 -8h-203q-17 0 -28 14l-191 310q-17 22 -33 0l-190 -310q-11 -14 -29 -14h-202q-13 0 -18 8z" />
<glyph unicode="&#x446;" horiz-adv-x="1181" d="M135 23v948q0 22 23 22h184q23 0 23 -22v-768h387v768q0 22 22 22h182q23 0 23 -22v-768h104q23 0 23 -23v-477q0 -22 -23 -22h-165q-23 0 -23 22v297h-737q-23 0 -23 23z" />
<glyph unicode="&#x447;" horiz-adv-x="1071" d="M98 662v309q0 22 23 22h182q23 0 23 -22v-285q0 -74 43 -116t120 -42q57 0 123 17l95 28v398q0 22 22 22h182q23 0 23 -22v-948q0 -23 -23 -23h-182q-22 0 -22 23v344l-56 -17q-99 -26 -192 -26q-170 0 -265.5 89t-95.5 249z" />
<glyph unicode="&#x448;" horiz-adv-x="1548" d="M137 23v948q0 22 23 22h182q23 0 23 -22v-768h294v768q0 22 23 22h184q23 0 23 -22v-768h295v768q0 22 22 22h183q22 0 22 -22v-948q0 -23 -22 -23h-1229q-23 0 -23 23z" />
<glyph unicode="&#x449;" horiz-adv-x="1613" d="M137 23v948q0 22 23 22h182q23 0 23 -22v-768h294v768q0 22 23 22h184q23 0 23 -22v-768h295v768q0 22 22 22h183q22 0 22 -22v-768h105q22 0 22 -23v-477q0 -22 -22 -22h-166q-23 0 -23 22v297h-1167q-23 0 -23 23z" />
<glyph unicode="&#x44a;" horiz-adv-x="1212" d="M39 813v158q0 22 22 22h469q23 0 23 -22v-291h145q205 0 320 -92t115 -256q0 -157 -98.5 -244.5t-278.5 -87.5h-408q-22 0 -22 23v768h-265q-22 0 -22 22zM553 203h203q71 0 111 34t40 95q0 68 -55.5 106.5t-153.5 38.5h-145v-274z" />
<glyph unicode="&#x44b;" horiz-adv-x="1466" d="M137 23v948q0 22 23 22h182q23 0 23 -22v-291h145q205 0 319.5 -92t114.5 -256q0 -157 -98.5 -244.5t-278.5 -87.5h-407q-23 0 -23 23zM365 203h202q71 0 111.5 34t40.5 95q0 68 -55.5 106.5t-153.5 38.5h-145v-274zM1102 23v946q0 22 22 22h183q22 0 22 -22v-946 q0 -23 -22 -23h-183q-22 0 -22 23z" />
<glyph unicode="&#x44c;" horiz-adv-x="1024" d="M137 23v948q0 22 23 22h182q23 0 23 -22v-291h145q205 0 319.5 -92t114.5 -256q0 -157 -98.5 -244.5t-278.5 -87.5h-407q-23 0 -23 23zM365 203h202q71 0 111.5 34t40.5 95q0 68 -55.5 106.5t-153.5 38.5h-145v-274z" />
<glyph unicode="&#x44d;" horiz-adv-x="980" d="M111 59l47 154q7 20 26 14l70 -20q84 -23 149 -23q109 0 173.5 58.5t82.5 165.5h-370q-23 0 -23 22v145q0 23 23 23h370q-43 211 -258 211q-67 0 -137 -23l-69 -18q-20 -7 -27 14l-49 154q-6 23 16 29l90 24q95 25 176 25q236 0 364 -137.5t128 -378.5 q0 -242 -127.5 -381.5t-359.5 -139.5q-98 0 -189 27l-90 27q-22 6 -16 28z" />
<glyph unicode="&#x44e;" horiz-adv-x="1597" d="M137 23v948q0 22 23 22h182q23 0 23 -22v-367h208q26 191 149 300.5t316 109.5q218 0 344.5 -139.5t126.5 -376.5q0 -240 -126.5 -380.5t-344.5 -140.5q-195 0 -318.5 113t-148.5 311h-206v-378q0 -23 -23 -23h-182q-23 0 -23 23zM791 498q0 -148 65 -231t182 -83 q114 0 180 83.5t66 230.5q0 146 -66 228.5t-180 82.5q-117 0 -182 -82t-65 -229z" />
<glyph unicode="&#x44f;" horiz-adv-x="1085" d="M81 7.5q-5 7.5 1 19.5l104 231q58 119 144 156q29 13 -2 26q-82 30 -136.5 94.5t-54.5 155.5q0 142 98 222.5t277 80.5h414q22 0 22 -22v-948q0 -23 -22 -23h-183q-22 0 -22 23v331h-82q-98 0 -152.5 -45.5t-101.5 -146.5l-66 -146q-10 -16 -26 -16h-195q-12 0 -17 7.5z M358 672q0 -57 47.5 -89t133.5 -32h182v240h-219q-67 0 -105.5 -31.5t-38.5 -87.5z" />
<glyph unicode="&#x450;" horiz-adv-x="1046" d="M88 496q0 241 126 379.5t349 138.5q184 0 289.5 -87t105.5 -239q0 -119 -73.5 -187t-227.5 -91l-321 -50q18 -83 78 -129.5t155 -46.5q97 0 162 21l90 22q23 6 29 -16l41 -154q6 -21 -17 -28l-94 -25q-111 -27 -209 -27q-229 0 -356 139t-127 380zM259.5 1460 q4.5 8 19.5 8h206q19 0 27 -16l139 -264q13 -27 -16 -27h-152q-14 0 -26 15l-193 266q-9 10 -4.5 18zM315 537l308 49q110 18 110 98q0 61 -45 93t-129 32q-105 0 -168.5 -67.5t-75.5 -204.5z" />
<glyph unicode="&#x451;" horiz-adv-x="1046" d="M88 496q0 241 126 379.5t349 138.5q184 0 289.5 -87t105.5 -239q0 -119 -73.5 -187t-227.5 -91l-321 -50q18 -83 78 -129.5t155 -46.5q97 0 162 21l90 22q23 6 29 -16l41 -154q6 -21 -17 -28l-94 -25q-111 -27 -209 -27q-229 0 -356 139t-127 380zM229 1358 q0 60 33.5 94.5t91.5 34.5q60 0 93.5 -34.5t33.5 -94.5q0 -64 -33 -97.5t-94 -33.5q-59 0 -92 33.5t-33 97.5zM315 537l308 49q110 18 110 98q0 61 -45 93t-129 32q-105 0 -168.5 -67.5t-75.5 -204.5zM592 1358q0 60 33.5 94.5t91.5 34.5q60 0 93.5 -34.5t33.5 -94.5 q0 -64 -33 -97.5t-94 -33.5q-59 0 -92 33.5t-33 97.5z" />
<glyph unicode="&#x452;" horiz-adv-x="1095" d="M12 1126v109q0 22 23 22h112v189q0 22 23 22h182q23 0 23 -22v-189h373q22 0 22 -22v-109q0 -22 -22 -22h-373v-252l55 16q98 29 203 29q169 0 264.5 -90t95.5 -248v-674q0 -163 -93.5 -255.5t-260.5 -92.5q-76 0 -164 29l-29 10q-21 7 -14 27l51 151q7 22 27 15l33 -11 q46 -14 96 -14q60 0 93.5 38t33.5 103v645q0 74 -43.5 117t-118.5 43q-76 0 -135 -18l-94 -29v-620q0 -23 -23 -23h-182q-23 0 -23 23v1081h-112q-23 0 -23 22z" />
<glyph unicode="&#x453;" horiz-adv-x="921" d="M137 23v948q0 22 23 22h665q12 0 17.5 -7t1.5 -17l-45 -160q-6 -18 -27 -18h-407v-768q0 -23 -23 -23h-182q-23 0 -23 23zM371 1188l139 264q8 16 27 16h206q15 0 19.5 -8t-4.5 -18l-193 -266q-12 -15 -26 -15h-152q-29 0 -16 27z" />
<glyph unicode="&#x454;" horiz-adv-x="980" d="M88 498q0 242 127 379t365 137q78 0 176 -25l88 -24q22 -6 16 -29l-47 -154q-7 -21 -27 -14l-69 18q-73 23 -137 23q-215 0 -258 -211h368q23 0 23 -23v-145q0 -22 -23 -22h-368q18 -107 82 -165.5t171 -58.5q68 0 152 23l70 20q19 6 26 -14l47 -154q6 -22 -16 -28 l-90 -27q-92 -27 -191 -27q-232 0 -358.5 139.5t-126.5 381.5z" />
<glyph unicode="&#x455;" horiz-adv-x="974" d="M100 72l47 153q7 22 27 15l74 -21q119 -35 262 -35q74 0 116 27.5t42 75.5q0 37 -23 61t-74 39l-206 53q-128 32 -189 100.5t-61 178.5q0 139 98 217t276 78q129 0 254 -33l91 -23q22 -6 16 -28l-43 -154q-6 -22 -29 -16l-90 24q-86 25 -199 25q-70 0 -109.5 -24 t-39.5 -66q0 -68 92 -94l205 -54q133 -34 195.5 -103.5t62.5 -180.5q0 -145 -102 -227.5t-283 -82.5q-165 0 -313 43l-80 23q-23 7 -17 29z" />
<glyph unicode="&#x456;" horiz-adv-x="573" d="M86 813v158q0 22 23 22h305q22 0 22 -22v-948q0 -23 -22 -23h-183q-22 0 -22 23v768h-100q-23 0 -23 22zM162 1348q0 64 36 100.5t101 36.5q64 0 99.5 -36t35.5 -101q0 -66 -35.5 -103t-99.5 -37q-65 0 -101 37t-36 103z" />
<glyph unicode="&#x457;" horiz-adv-x="573" d="M-4 1364q0 60 33.5 94.5t91.5 34.5q60 0 93.5 -34.5t33.5 -94.5q0 -64 -33 -97.5t-94 -33.5q-59 0 -92 33.5t-33 97.5zM86 813v158q0 22 23 22h305q22 0 22 -22v-948q0 -23 -22 -23h-183q-22 0 -22 23v768h-100q-23 0 -23 22zM332 1364q0 60 33.5 94.5t91.5 34.5 q60 0 93.5 -34.5t33.5 -94.5q0 -64 -33 -97.5t-94 -33.5q-59 0 -92 33.5t-33 97.5z" />
<glyph unicode="&#x458;" horiz-adv-x="573" d="M41 -303q-10 19 8 31l47 32q113 73 113 197v834h-100q-23 0 -23 22v158q0 22 23 22h305q22 0 22 -22v-1014q0 -123 -56 -214t-175 -163l-51 -35q-20 -14 -33 6zM164 1348q0 65 35.5 101t99.5 36t99.5 -36t35.5 -101q0 -66 -35.5 -103t-99.5 -37t-99.5 37t-35.5 103z" />
<glyph unicode="&#x459;" horiz-adv-x="1669" d="M43 131q-10 23 10 31l60 28q139 75 139 302v479q0 22 22 22h717q23 0 23 -22v-291h135q209 0 323.5 -91.5t114.5 -256.5q0 -157 -99 -244.5t-280 -87.5h-399q-23 0 -23 23v768h-307v-299q0 -179 -67 -297.5t-211 -190.5l-60 -29q-20 -9 -30 11zM1014 203h194q72 0 113 34 t41 95q0 68 -56.5 106.5t-156.5 38.5h-135v-274z" />
<glyph unicode="&#x45a;" horiz-adv-x="1611" d="M137 23v948q0 22 23 22h182q23 0 23 -22v-334h362v334q0 22 23 22h184q22 0 22 -22v-334h168q193 0 299.5 -85t106.5 -239q0 -148 -98 -230.5t-273 -82.5h-409q-23 0 -23 23v411h-362v-411q0 -23 -23 -23h-182q-23 0 -23 23zM956 203h203q68 0 107 29.5t39 80.5 q0 58 -48 89.5t-133 31.5h-168v-231z" />
<glyph unicode="&#x45b;" horiz-adv-x="1095" d="M12 1126v109q0 22 23 22h112v189q0 22 23 22h182q23 0 23 -22v-189h373q22 0 22 -22v-109q0 -22 -22 -22h-373v-252l55 16q98 29 203 29q169 0 264.5 -90t95.5 -248v-536q0 -23 -22 -23h-183q-22 0 -22 23v507q0 74 -43.5 117t-118.5 43q-76 0 -135 -18l-94 -29v-620 q0 -23 -23 -23h-182q-23 0 -23 23v1081h-112q-23 0 -23 22z" />
<glyph unicode="&#x45c;" horiz-adv-x="1095" d="M137 23v948q0 22 23 22h182q23 0 23 -22v-367h30q36 0 66.5 13t59.5 42.5t45 50.5t44 62l135 207q11 14 29 14h201q13 0 17.5 -7.5t-1.5 -18.5l-180 -291q-85 -125 -178 -160q-6 -3 -6.5 -8t6.5 -8q113 -49 190 -166l189 -307q7 -11 2 -19t-19 -8h-202q-18 0 -29 14 l-141 228q-51 78 -101 117.5t-127 39.5h-30v-376q0 -23 -23 -23h-182q-23 0 -23 23zM432.5 1166.5q-4.5 7.5 1.5 19.5l139 264q8 16 27 16h207q15 0 19 -8t-5 -18l-192 -266q-12 -15 -27 -15h-151q-14 0 -18.5 7.5z" />
<glyph unicode="&#x45e;" horiz-adv-x="1148" d="M69 986q5 7 17 7h193q16 0 26 -16l184 -418q56 -132 78 -260q3 -12 10 -16.5t13.5 0t9.5 16.5q24 129 74 260l172 416q6 18 24 18h193q12 0 17 -7t1 -19l-442 -1076q-66 -171 -166 -251t-250 -80h-76q-22 0 -22 22v158q0 22 22 22h68q66 0 106 28t68 93l31 72 q14 32 15.5 70t-9 85t-28.5 97t-48 119l-280 641q-6 12 -1 19zM303 1397v49q0 22 23 22h118q23 0 23 -22v-51q0 -48 28 -74.5t80 -26.5t80.5 26.5t28.5 74.5v51q0 22 23 22h118q23 0 23 -22v-49q0 -119 -72 -185.5t-201 -66.5q-128 0 -200 67t-72 185z" />
<glyph unicode="&#x45f;" horiz-adv-x="1116" d="M135 23v948q0 22 23 22h184q23 0 23 -22v-768h387v768q0 22 22 22h182q23 0 23 -22v-948q0 -23 -23 -23h-292v-297q0 -22 -23 -22h-166q-22 0 -22 22v297h-295q-23 0 -23 23z" />
<glyph unicode="&#x462;" horiz-adv-x="1505" d="M43 1124v115q0 23 23 23h296v147q0 23 23 23h186q23 0 23 -23v-147h356q23 0 23 -23v-115q0 -22 -23 -22h-356v-174h221q284 0 435 -122.5t151 -350.5q0 -214 -130.5 -334.5t-363.5 -120.5h-522q-23 0 -23 23v1079h-296q-23 0 -23 22zM594 207h313q122 0 190 65.5 t68 182.5q0 130 -89.5 199t-260.5 69h-221v-516z" />
<glyph unicode="&#x463;" horiz-adv-x="1179" d="M55 862v109q0 22 23 22h215v453q0 22 22 22h183q22 0 22 -22v-453h320q22 0 22 -22v-109q0 -22 -22 -22h-320v-193h146q204 0 319 -84.5t115 -236.5q0 -154 -99.5 -240t-277.5 -86h-408q-22 0 -22 23v817h-215q-23 0 -23 22zM520 203h203q71 0 111 32.5t40 90.5 q0 62 -55.5 97.5t-152.5 35.5h-146v-256z" />
<glyph unicode="&#x472;" d="M104 717q0 340 166.5 537.5t456.5 197.5q289 0 456 -197.5t167 -537.5q0 -342 -167.5 -541t-455.5 -199q-290 0 -456.5 199t-166.5 541zM344 618q20 -202 120 -315t263 -113q165 0 265.5 117.5t117.5 329.5q-105 -59 -205 -59q-64 0 -181 51t-177 51q-98 0 -203 -62z M346 834q98 57 201 57q64 0 181 -51.5t177 -51.5q91 0 199 62q-26 187 -124 289t-253 102q-159 0 -258.5 -106.5t-122.5 -300.5z" />
<glyph unicode="&#x473;" horiz-adv-x="1122" d="M88 498q0 238 127 378t346 140t346 -140t127 -378q0 -240 -127 -380.5t-346 -140.5t-346 140.5t-127 380.5zM319 584q69 32 138 32q44 0 107.5 -24.5t107.5 -24.5q52 0 127 35q-22 100 -84 154.5t-154 54.5q-98 0 -160.5 -59.5t-81.5 -167.5zM324 391q22 -99 83 -153 t154 -54q97 0 160 59.5t82 166.5q-72 -35 -131 -35q-50 0 -113 24.5t-102 24.5q-62 0 -133 -33z" />
<glyph unicode="&#x474;" horiz-adv-x="1490" d="M68 1405q-10 27 18 27h197q18 0 24 -19l291 -733q71 -183 104 -365q2 -11 9 -15.5t14.5 0t9.5 15.5q30 161 107 365l207 510q49 129 129.5 185.5t210.5 56.5h38q23 0 23 -23v-162q0 -22 -23 -22h-38q-45 0 -74 -26t-55 -93l-242 -598q-94 -252 -154 -490q-3 -18 -24 -18 h-240q-22 0 -25 18q-58 229 -155 490z" />
<glyph unicode="&#x475;" horiz-adv-x="1157" d="M68 967q-4 12 1 19t17 7h190q17 0 27 -16l139 -326q76 -209 105 -356q2 -11 9 -15.5t14 0t10 15.5q21 132 96 336l102 225q53 137 228 137h71q23 0 23 -22v-158q0 -22 -23 -22h-28q-57 0 -80 -56l-113 -252q-107 -277 -160 -465q-6 -18 -26 -18h-213q-21 0 -27 18 q-40 151 -160 465z" />
<glyph unicode="&#x48a;" horiz-adv-x="1581" d="M158 23v1386q0 23 22 23h189q22 0 22 -23v-772q0 -147 -18 -285q-3 -18 8 -21.5t20 13.5q29 61 72 137l438 723q66 113 107 211q10 17 26 17h246q23 0 23 -23v-1202h149q12 0 18 -7t3 -18l-131 -547q-3 -20 -25 -20h-174q-12 0 -17.5 7t-2.5 18l88 360h-117q-23 0 -23 23 v776q0 171 17 280q3 19 -8.5 23.5t-18.5 -15.5q-27 -55 -72 -137l-438 -723q-59 -101 -108 -211q-10 -16 -27 -16h-246q-22 0 -22 23z" />
<glyph unicode="&#x48b;" horiz-adv-x="1251" d="M137 23v948q0 22 23 22h184q23 0 23 -22v-387q0 -123 -21 -258q-2 -13 8 -16.5t17 12.5q6 12 27.5 51.5t31.5 60.5l246 395q45 85 72 148q6 16 24 16h234q22 0 22 -22v-768h121q12 0 17.5 -7t2.5 -18l-129 -479q-6 -18 -26 -18h-166q-12 0 -18 7t-3 17l82 295h-86 q-22 0 -22 23v385q0 155 16 258q3 14 -6.5 18t-15.5 -12l-62 -115l-246 -393q-44 -83 -71 -146q-6 -18 -25 -18h-231q-23 0 -23 23zM311 1397v49q0 22 23 22h119q22 0 22 -22v-51q0 -48 28.5 -74.5t80.5 -26.5t80 26.5t28 74.5v51q0 22 23 22h119q22 0 22 -22v-49 q0 -119 -71.5 -185.5t-200.5 -66.5q-128 0 -200.5 67t-72.5 185z" />
<glyph unicode="&#x48e;" horiz-adv-x="1296" d="M158 23v1386q0 23 22 23h522q233 0 363.5 -120.5t130.5 -334.5q0 -164 -79 -274t-230 -160l88 -203q6 -12 0.5 -19.5t-17.5 -7.5h-127q-16 0 -26 17l-78 180q-55 -6 -117 -6h-221v-481q0 -23 -22 -23h-187q-22 0 -22 23zM389 709h221h29l-80 180q-6 12 -1 19t17 7h127 q17 0 27 -16l70 -160q162 60 162 238q0 117 -68.5 182.5t-190.5 65.5h-313v-516z" />
<glyph unicode="&#x48f;" horiz-adv-x="1153" d="M137 -418v1389q0 22 23 22h102q22 0 25 -18l22 -86q7 -17 17.5 -16.5t21.5 14.5q113 127 287 127q200 0 315 -138.5t115 -377.5q0 -173 -64.5 -296t-183.5 -179l84 -193q6 -12 1 -19.5t-17 -7.5h-115q-17 0 -27 17l-69 162q-58 -5 -68 -5q-101 0 -186 39l-55 25v-459 q0 -22 -23 -22h-182q-23 0 -23 22zM362 248l62 -29q72 -35 160 -35l-86 195q-6 12 -1 19.5t17 7.5h115q16 0 26 -17l72 -166q113 75 113 275q0 146 -64 228.5t-178 82.5q-113 0 -174.5 -84t-61.5 -221v-256z" />
<glyph unicode="&#x490;" horiz-adv-x="1200" d="M158 23v1386q0 23 22 23h694v270q0 22 23 22h176q23 0 23 -22v-455q0 -22 -23 -22h-684v-1202q0 -23 -22 -23h-187q-22 0 -22 23z" />
<glyph unicode="&#x491;" horiz-adv-x="919" d="M137 23v948q0 22 23 22h475v205q0 23 22 23h166q23 0 23 -23v-385q0 -22 -23 -22h-458v-768q0 -23 -23 -23h-182q-23 0 -23 23z" />
<glyph unicode="&#x492;" horiz-adv-x="1296" d="M78 612v113q0 23 22 23h164v661q0 23 23 23h891q12 0 17.5 -7t2.5 -18l-45 -164q-6 -18 -27 -18h-630v-477h303q22 0 22 -23v-113q0 -22 -22 -22h-303v-567q0 -23 -23 -23h-186q-23 0 -23 23v567h-164q-22 0 -22 22z" />
<glyph unicode="&#x493;" horiz-adv-x="983" d="M66 367v112q0 23 22 23h109v469q0 22 22 22h666q12 0 17 -7t1 -17l-45 -160q-6 -18 -27 -18h-407v-289h250q22 0 22 -23v-112q0 -23 -22 -23h-250v-321q0 -23 -23 -23h-182q-22 0 -22 23v321h-109q-22 0 -22 23z" />
<glyph unicode="&#x494;" horiz-adv-x="1341" d="M158 23v1386q0 23 22 23h891q12 0 18 -7t3 -18l-45 -164q-6 -18 -27 -18h-631v-428h6l115 39q115 38 254 38q217 0 341 -121.5t124 -338.5v-359q0 -200 -108 -313t-298 -113q-90 0 -194 35l-47 17q-24 7 -15 28l54 154q10 21 28 12l45 -14q58 -19 125 -19q81 0 128.5 56 t47.5 157v322q0 133 -70.5 209t-191.5 76q-96 0 -186 -33l-137 -47q-20 -4 -29 -4q8 0 8 -23v-532q0 -23 -22 -23h-187q-22 0 -22 23z" />
<glyph unicode="&#x495;" horiz-adv-x="1067" d="M137 23v948q0 22 23 22h665q12 0 17.5 -7t1.5 -17l-45 -160q-6 -18 -27 -18h-407v-261h2l53 17q85 28 207 28q169 0 263.5 -88.5t94.5 -248.5v-351q1 -164 -93 -257t-261 -93q-80 0 -166 29l-31 10q-21 11 -12 29l51 149q7 22 27 15l32 -11q46 -14 99 -14q60 0 93.5 38.5 t33.5 104.5v324q0 75 -43.5 117.5t-118.5 42.5q-72 0 -135 -17l-76 -22q-18 -6 -39 -6q19 0 19 -23v-280q0 -23 -23 -23h-182q-23 0 -23 23z" />
<glyph unicode="&#x496;" horiz-adv-x="1980" d="M100.5 7.5q-4.5 7.5 1.5 19.5l236 450q105 186 235 248q9 3 9 12t-9 13q-131 54 -223 223l-227 432q-13 27 16 27h201q18 0 27 -17l168 -307q29 -54 54 -93t62 -84t80.5 -69t89.5 -24h41v571q0 23 23 23h186q23 0 23 -23v-571h41q46 0 89 23.5t81 70t62 83t56 93.5 l168 307q9 17 27 17h201q29 0 16 -27l-227 -432q-92 -169 -226 -223q-9 -4 -9 -13t9 -12q127 -61 236 -248l141 -270h133q23 0 23 -23v-546q0 -23 -23 -23h-176q-22 0 -22 23v362h-58q-18 0 -26 16l-178 326q-23 43 -32 59t-33 55.5t-38 57t-39 45.5t-46.5 40.5t-50 23 t-58.5 10.5h-41v-610q0 -23 -23 -23h-186q-23 0 -23 23v610h-43q-29 0 -57.5 -10.5t-49.5 -23t-46 -40.5t-39.5 -45.5t-38 -57t-32.5 -55.5t-32 -59l-178 -326q-8 -16 -27 -16h-200q-14 0 -18.5 7.5z" />
<glyph unicode="&#x497;" horiz-adv-x="1587" d="M98.5 7.5q-4.5 7.5 1.5 19.5l160 292q37 68 77.5 110t92.5 65q9 4 9 10.5t-9 9.5q-88 38 -160 170l-153 283q-13 26 16 26h197q18 0 26 -16l111 -199q40 -72 87 -123t93 -51h23v367q0 22 22 22h182q23 0 23 -22v-367h25q45 0 92 51.5t86 122.5l108 199q8 16 27 16h199 q29 0 16 -26l-154 -283q-73 -135 -159 -170q-9 -3 -8.5 -9t8.5 -11q53 -23 92.5 -64.5t77.5 -110.5l63 -116h146q22 0 22 -23v-477q0 -22 -22 -22h-166q-23 0 -23 22v297h-74q-18 0 -26 16l-142 256q-74 127 -157 127h-31v-376q0 -23 -23 -23h-182q-22 0 -22 23v376h-31 q-42 0 -84 -35t-74 -92l-141 -256q-8 -16 -27 -16h-196q-14 0 -18.5 7.5z" />
<glyph unicode="&#x498;" horiz-adv-x="1282" d="M123 100l55 154q9 21 29 14l129 -39q124 -41 274 -41t238 58.5t88 163.5q0 112 -85.5 167.5t-232.5 55.5h-184q-22 0 -22 22v160q0 23 22 23h182q124 0 197.5 55.5t73.5 144.5q0 93 -74 148t-203 55q-153 0 -274 -39l-113 -37q-18 -6 -28 15l-56 155q-9 22 15 29l114 37 q161 51 348 51q231 0 366.5 -105t135.5 -284q0 -208 -205 -307q-11 -5 -15 -11t0 -12t15 -10q121 -41 188.5 -125t67.5 -205q0 -159 -115 -269t-313 -138v-348q0 -23 -22 -23h-174q-23 0 -23 23v344q-121 8 -256 49l-129 41q-23 7 -14 28z" />
<glyph unicode="&#x499;" horiz-adv-x="991" d="M100 63l45 154q6 19 27 16l100 -24q98 -25 203 -25q93 0 149 31.5t56 85.5q0 48 -54.5 78.5t-142.5 30.5h-145q-23 0 -23 22v143q0 23 23 23h145q73 0 116.5 29.5t43.5 79.5q0 46 -47 75t-123 29q-101 0 -201 -23l-88 -22q-21 -6 -28 14l-43 154q-6 23 16 29l96 24 q113 29 248 29q182 0 286.5 -77t104.5 -208q0 -73 -34.5 -128.5t-108.5 -80.5q-12 -4 -12 -12t12 -12q182 -55 182 -222q0 -114 -79 -189.5t-224 -98.5v-285q0 -22 -22 -22h-168q-23 0 -23 22v279q-97 11 -168 28l-102 25q-23 7 -17 28z" />
<glyph unicode="&#x49a;" horiz-adv-x="1417" d="M158 23v1386q0 23 22 23h187q22 0 22 -23v-571h45q105 0 205 76t172 194l190 309q12 15 29 15h205q12 0 16.5 -8t-2.5 -19l-239 -395q-57 -93 -132 -159.5t-153 -98.5q-11 -5 -11.5 -12.5t11.5 -12.5q173 -74 299 -281l145 -239h146q22 0 22 -23v-546q0 -23 -22 -23h-178 q-23 0 -23 23v362h-57q-18 0 -29 14l-203 328q-77 130 -178.5 210.5t-210.5 80.5h-47v-610q0 -23 -22 -23h-187q-22 0 -22 23z" />
<glyph unicode="&#x49b;" horiz-adv-x="1134" d="M137 23v948q0 22 23 22h182q23 0 23 -22v-367h30q36 0 66.5 13t59.5 42.5t45 50.5t44 62l135 207q11 14 29 14h201q13 0 17.5 -7.5t-1.5 -18.5l-180 -291q-85 -125 -178 -160q-6 -3 -6.5 -8t6.5 -8q113 -49 190 -166l80 -131h154q22 0 22 -23v-477q0 -22 -22 -22h-168 q-23 0 -23 22v297h-73q-18 0 -29 14l-141 228q-51 78 -101 117.5t-127 39.5h-30v-376q0 -23 -23 -23h-182q-23 0 -23 23z" />
<glyph unicode="&#x49c;" horiz-adv-x="1495" d="M158 23v1386q0 23 22 23h187q22 0 22 -23v-571h111v239q0 23 22 23h121q23 0 23 -23v-225q139 46 264 240l200 325q12 15 29 15h207q14 0 18.5 -8t-2.5 -19l-247 -406q-58 -91 -130.5 -154.5t-146.5 -94.5q-11 -5 -11.5 -12.5t11.5 -12.5q173 -77 299 -281l252 -417 q7 -11 2.5 -19t-16.5 -8h-209q-18 0 -29 14l-207 338q-40 64 -76.5 111t-92.5 93.5t-115 64.5v-250q0 -23 -23 -23h-121q-22 0 -22 23v262h-111v-610q0 -23 -22 -23h-187q-22 0 -22 23z" />
<glyph unicode="&#x49d;" horiz-adv-x="1208" d="M137 23v948q0 22 23 22h182q23 0 23 -22v-389h71v172q0 22 23 22h71q23 0 23 -22v-164q18 6 36.5 18.5t31 23t31 33.5t26 33t27.5 39t24 35l135 207q11 14 29 14h201q13 0 17.5 -7.5t-1.5 -18.5l-182 -291q-77 -119 -180 -160q-5 -2 -7 -5t-0.5 -6t7.5 -5 q107 -47 188 -168l188 -305q6 -11 1.5 -19t-17.5 -8h-201q-17 0 -28 14l-142 226q-25 39 -39 58.5t-38.5 48.5t-50.5 45.5t-56 23.5v-164q0 -23 -23 -23h-71q-23 0 -23 23v170h-71v-399q0 -23 -23 -23h-182q-23 0 -23 23z" />
<glyph unicode="&#x49e;" horiz-adv-x="1454" d="M57 1087v113q0 23 23 23h166v186q0 23 22 23h187q22 0 22 -23v-186h166q23 0 23 -23v-113q0 -22 -23 -22h-166v-227h45q105 0 205 76t172 194l191 309q12 15 28 15h205q12 0 16.5 -8t-2.5 -19l-239 -395q-57 -93 -132 -159.5t-153 -98.5q-11 -5 -11.5 -12.5t11.5 -12.5 q173 -74 299 -281l256 -419q7 -11 2.5 -19t-18.5 -8h-207q-18 0 -29 14l-203 328q-77 130 -178.5 210.5t-210.5 80.5h-47v-610q0 -23 -22 -23h-187q-22 0 -22 23v1042h-166q-23 0 -23 22z" />
<glyph unicode="&#x49f;" horiz-adv-x="1105" d="M12 1165v113q0 22 23 22h112v146q0 22 23 22h182q23 0 23 -22v-146h375q22 0 22 -22v-113q0 -22 -22 -22h-375v-539h31q36 0 66.5 13t59.5 42.5t45 50.5t44 62l135 207q11 14 28 14h201q13 0 17.5 -7.5t-1.5 -18.5l-180 -291q-85 -125 -178 -160q-6 -3 -6.5 -8t6.5 -8 q115 -49 191 -166l188 -307q7 -11 2.5 -19t-18.5 -8h-203q-18 0 -29 14l-141 228q-25 38 -44.5 62t-47 48t-61 35.5t-74.5 11.5h-31v-376q0 -23 -23 -23h-182q-23 0 -23 23v1120h-112q-23 0 -23 22z" />
<glyph unicode="&#x4a0;" horiz-adv-x="1644" d="M35 1247v162q0 23 22 23h588q23 0 23 -23v-571h45q105 0 205 76t172 194l190 309q12 15 29 15h204q12 0 17 -8t-2 -19l-240 -395q-57 -93 -131.5 -160t-152.5 -98q-11 -5 -11.5 -12.5t11.5 -12.5q173 -74 299 -281l256 -419q7 -11 2 -19t-19 -8h-207q-17 0 -28 14 l-203 328q-77 130 -178.5 210.5t-210.5 80.5h-47v-610q0 -23 -23 -23h-186q-23 0 -23 23v1202h-379q-22 0 -22 22z" />
<glyph unicode="&#x4a1;" horiz-adv-x="1282" d="M39 813v158q0 22 22 22h467q23 0 23 -22v-367h31q36 0 66.5 13t59.5 42.5t45 50.5t44 62l135 207q11 14 29 14h200q13 0 18 -7.5t-1 -18.5l-181 -291q-85 -125 -178 -160q-6 -3 -6.5 -8t6.5 -8q115 -49 191 -166l188 -307q7 -11 2.5 -19t-18.5 -8h-203q-18 0 -29 14 l-141 228q-25 38 -44.5 62t-47 48t-61 35.5t-74.5 11.5h-31v-376q0 -23 -23 -23h-182q-22 0 -22 23v768h-263q-22 0 -22 22z" />
<glyph unicode="&#x4a2;" horiz-adv-x="1523" d="M158 23v1386q0 23 22 23h187q22 0 22 -23v-571h658v571q0 23 22 23h188q23 0 23 -23v-1202h129q23 0 23 -23v-546q0 -23 -23 -23h-176q-23 0 -23 23v362h-141q-22 0 -22 23v610h-658v-610q0 -23 -22 -23h-187q-22 0 -22 23z" />
<glyph unicode="&#x4a3;" horiz-adv-x="1193" d="M137 23v948q0 22 23 22h182q23 0 23 -22v-367h397v367q0 22 22 22h185q22 0 22 -22v-768h103q22 0 22 -23v-477q0 -22 -22 -22h-166q-23 0 -23 22v297h-121q-22 0 -22 23v378h-397v-378q0 -23 -23 -23h-182q-23 0 -23 23z" />
<glyph unicode="&#x4a4;" horiz-adv-x="2078" d="M158 23v1386q0 23 22 23h187q22 0 22 -23v-571h658v571q0 23 22 23h893q12 0 17.5 -7t2.5 -18l-47 -166q-6 -18 -26 -18h-629v-1200q0 -23 -23 -23h-188q-22 0 -22 23v610h-658v-610q0 -23 -22 -23h-187q-22 0 -22 23z" />
<glyph unicode="&#x4a5;" horiz-adv-x="1548" d="M137 23v948q0 22 23 22h182q23 0 23 -22v-367h397v367q0 22 22 22h666q12 0 17.5 -6.5t2.5 -17.5l-45 -160q-6 -18 -26 -18h-408v-768q0 -23 -22 -23h-185q-22 0 -22 23v378h-397v-378q0 -23 -23 -23h-182q-23 0 -23 23z" />
<glyph unicode="&#x4a6;" horiz-adv-x="1490" d="M158 23v1386q0 23 22 23h1043q22 0 22 -23v-1202h131q23 0 23 -23v-546q0 -23 -23 -23h-176q-22 0 -22 23v362h-142q-22 0 -22 23v1202h-625v-1202q0 -23 -22 -23h-187q-22 0 -22 23z" />
<glyph unicode="&#x4a7;" horiz-adv-x="1181" d="M137 23v948q0 22 23 22h798q23 0 23 -22v-768h102q23 0 23 -23v-477q0 -22 -23 -22h-165q-23 0 -23 22v297h-121q-22 0 -22 23v768h-387v-768q0 -23 -23 -23h-182q-23 0 -23 23z" />
<glyph unicode="&#x4a8;" horiz-adv-x="1867" d="M104 711q0 187 60 336t194 294l91 103q16 16 30 2l137 -111q19 -13 5 -30l-93 -105q-188 -197 -188 -479q0 -249 132.5 -390t365.5 -141q16 0 84 5q-224 234 -224 634q0 276 119.5 429t331.5 153q221 0 344 -152t123 -423q0 -409 -227 -641q58 -5 67 -5q118 0 209 27 l104 29q20 7 27 -15l51 -155q10 -22 -14 -29l-104 -31q-110 -36 -265 -36q-167 0 -309 57q-148 -60 -326 -60q-342 0 -533.5 194t-191.5 540zM930 821q0 -191 56 -330t165 -215q113 76 170 217.5t57 337.5q0 176 -58.5 271.5t-166.5 95.5q-106 0 -164.5 -99t-58.5 -278z" />
<glyph unicode="&#x4a9;" horiz-adv-x="1441" d="M88 510q0 230 148 403l67 84q16 16 33 4l137 -96q19 -15 4 -33l-57 -73q-107 -127 -107 -289q0 -158 83.5 -242t234.5 -84h16q-125 149 -125 379q0 187 93 292.5t257 105.5q163 0 255 -105.5t92 -292.5q0 -227 -111 -375q46 -4 72 -4q65 0 123 15l43 12q19 6 26 -14 l51 -152q6 -23 -16 -29l-45 -14q-82 -25 -186 -25q-156 0 -289 46q-121 -46 -260 -46q-255 0 -397 139t-142 394zM748 563q0 -188 133 -293q112 103 112 293q0 91 -32.5 141t-90.5 50q-57 0 -89.5 -50.5t-32.5 -140.5z" />
<glyph unicode="&#x4aa;" horiz-adv-x="1263" d="M104 717q0 340 168 537.5t461 197.5q91 0 157 -10t142 -37l90 -31q21 -7 15 -26l-54 -158q-7 -20 -26 -14l-92 30q-93 32 -232 35q-186 0 -289.5 -138t-103.5 -386q0 -250 103.5 -388.5t289.5 -138.5q127 0 234 37l90 31q18 6 28 -14l56 -154q9 -22 -15 -29l-90 -30 q-118 -42 -229 -51v-342q0 -23 -23 -23h-176q-22 0 -22 23v354q-228 47 -355 238t-127 487z" />
<glyph unicode="&#x4ab;" horiz-adv-x="970" d="M88 498q0 242 127 379t365 137q88 0 176 -25l88 -24q22 -6 16 -29l-47 -154q-7 -21 -27 -14l-69 18q-73 23 -137 23q-134 0 -200.5 -80.5t-66.5 -228.5q0 -151 66.5 -233.5t195.5 -82.5q68 0 152 23l68 20q21 6 28 -14l47 -154q6 -22 -16 -28l-90 -27q-69 -17 -125 -22 v-279q0 -22 -23 -22h-165q-23 0 -23 22v291q-164 39 -252 171t-88 333z" />
<glyph unicode="&#x4ac;" horiz-adv-x="1308" d="M80 1247v162q0 23 22 23h1104q23 0 23 -23v-162q0 -22 -23 -22h-436v-1018h129q23 0 23 -23v-546q0 -23 -23 -23h-176q-23 0 -23 23v362h-141q-22 0 -22 23v1202h-435q-22 0 -22 22z" />
<glyph unicode="&#x4ad;" horiz-adv-x="1024" d="M74 813v158q0 22 22 22h832q22 0 22 -22v-158q0 -22 -22 -22h-301v-588h102q23 0 23 -23v-477q0 -22 -23 -22h-166q-22 0 -22 22v297h-121q-23 0 -23 23v768h-301q-22 0 -22 22z" />
<glyph unicode="&#x4ae;" horiz-adv-x="1380" d="M71.5 1424q4.5 8 16.5 8h207q18 0 27 -15l221 -366q70 -118 131 -277q6 -15 17.5 -15t15.5 15q50 130 131 277l223 366q9 15 26 15h207q12 0 17 -8t-2 -19l-303 -512q-66 -119 -92 -170t-57 -128.5t-40.5 -143t-9.5 -152.5v-276q0 -23 -23 -23h-188q-23 0 -23 23v276 q0 88 -9.5 154t-38.5 140.5t-57.5 130t-92.5 169.5l-301 512q-7 11 -2.5 19z" />
<glyph unicode="&#x4af;" horiz-adv-x="1136" d="M69 986q5 7 17 7h193q16 0 26 -16l139 -326q80 -213 107 -368q5 -17 18 -17t17 17q29 166 106 368l139 326q10 16 27 16h193q12 0 17 -7t-1 -19l-223 -523q-50 -124 -79.5 -208.5t-56 -211.5t-26.5 -245v-197q0 -22 -23 -22h-182q-22 0 -22 22v197q0 118 -26.5 245 t-56 211.5t-79.5 208.5l-223 523q-6 12 -1 19z" />
<glyph unicode="&#x4b0;" horiz-adv-x="1400" d="M81.5 1424q4.5 8 16.5 8h207q18 0 27 -15l221 -366q70 -118 131 -277q6 -15 17 -15t16 15q50 130 131 277l223 366q9 15 27 15h207q12 0 16.5 -8t-2.5 -19l-303 -512q-60 -109 -84 -155t-52 -112.5t-42 -123.5h272q23 0 23 -23v-160q0 -22 -23 -22h-293v-274 q0 -23 -22 -23h-189q-22 0 -22 23v274h-293q-23 0 -23 22v160q0 23 23 23h272q-13 58 -40 123t-53.5 114.5t-84.5 153.5l-301 512q-7 11 -2.5 19z" />
<glyph unicode="&#x4b1;" horiz-adv-x="1169" d="M85 986q5 7 17 7h193q17 0 27 -16l139 -326q78 -208 106 -368q5 -17 18 -17t17 17q28 161 107 368l139 326q10 16 26 16h193q12 0 17 -7t-1 -19l-223 -523q-62 -152 -104 -286h207q22 0 22 -23v-110q0 -23 -22 -23h-244q-21 -126 -21 -223v-197q0 -22 -22 -22h-182 q-23 0 -23 22v197q0 103 -20 223h-244q-23 0 -23 23v110q0 23 23 23h207q-39 124 -105 286l-223 523q-6 12 -1 19z" />
<glyph unicode="&#x4b2;" horiz-adv-x="1413" d="M118.5 8q-4.5 8 2.5 19l315 534q58 103 133 148q18 14 0 26q-79 46 -129 144l-311 526q-7 11 -2.5 19t16.5 8h205q18 0 27 -15l311 -526q20 -38 41 0l309 524q8 17 27 17h207q12 0 16.5 -8t-2.5 -19l-309 -526q-53 -99 -131 -144q-8 -6 -8 -13.5t8 -12.5q79 -48 133 -148 l209 -354h135q22 0 22 -23v-546q0 -23 -22 -23h-176q-23 0 -23 23v362h-51q-19 0 -27 14l-321 539q-6 12 -11.5 15.5t-11 0t-12.5 -15.5l-319 -539q-8 -14 -27 -14h-207q-12 0 -16.5 8z" />
<glyph unicode="&#x4b3;" horiz-adv-x="1134" d="M93 8q-5 8 1 19l228 360q49 78 98 109q6 3 6 6q1 4 -2 7t-8.5 6t-7.5 5q-46 32 -86 94l-222 353q-6 11 -1 18.5t18 7.5h200q18 0 29 -14l186 -305q16 -26 33 0l187 305q11 14 28 14h201q13 0 17.5 -7.5t-1.5 -18.5l-221 -353q-51 -80 -96 -102q-7 -3 -7.5 -8t5.5 -8 q57 -37 98 -109l117 -184h160q22 0 22 -23v-477q0 -22 -22 -22h-166q-23 0 -23 22v297h-80q-17 0 -28 14l-191 310q-17 22 -33 0l-190 -310q-11 -14 -29 -14h-202q-13 0 -18 8z" />
<glyph unicode="&#x4b4;" horiz-adv-x="1781" d="M35 1235v174q0 23 22 23h985q23 0 23 -23v-174q0 -23 -23 -23h-360v-1005h625v1202q0 23 22 23h187q22 0 22 -23v-1202h131q23 0 23 -23v-546q0 -23 -23 -23h-176q-23 0 -23 23v362h-997q-22 0 -22 23v1189h-394q-22 0 -22 23z" />
<glyph unicode="&#x4b5;" horiz-adv-x="1366" d="M39 813v158q0 22 22 22h693q22 0 22 -22v-158q0 -22 -22 -22h-205v-588h387v768q0 22 22 22h183q22 0 22 -22v-768h105q22 0 22 -23v-477q0 -22 -22 -22h-166q-23 0 -23 22v297h-737q-23 0 -23 23v768h-258q-22 0 -22 22z" />
<glyph unicode="&#x4b6;" horiz-adv-x="1425" d="M119 965v444q0 23 22 23h187q22 0 22 -23v-405q0 -147 63.5 -222t186.5 -75q104 0 203 30l147 49v623q0 23 23 23h188q23 0 23 -23v-1202h129q22 0 22 -23v-546q0 -23 -22 -23h-176q-23 0 -23 23v362h-141q-23 0 -23 23v546l-102 -34q-119 -41 -268 -41 q-219 0 -340 124.5t-121 346.5z" />
<glyph unicode="&#x4b7;" horiz-adv-x="1136" d="M98 662v309q0 22 23 22h182q23 0 23 -22v-285q0 -74 43 -116t120 -42q57 0 123 17l95 28v398q0 22 22 22h182q23 0 23 -22v-768h104q23 0 23 -23v-477q0 -22 -23 -22h-166q-22 0 -22 22v297h-121q-22 0 -22 23v344l-56 -17q-99 -26 -192 -26q-170 0 -265.5 89t-95.5 249z " />
<glyph unicode="&#x4b8;" horiz-adv-x="1339" d="M119 965v444q0 23 22 23h187q22 0 22 -23v-405q0 -271 209 -295v229q0 23 23 23h120q23 0 23 -23v-221q42 9 78 20l147 49v623q0 23 23 23h188q23 0 23 -23v-1386q0 -23 -23 -23h-188q-23 0 -23 23v546l-102 -34q-73 -24 -123 -31v-273q0 -22 -23 -22h-120q-23 0 -23 22 v263q-210 6 -325 130t-115 341z" />
<glyph unicode="&#x4b9;" horiz-adv-x="1071" d="M98 662v309q0 22 23 22h182q23 0 23 -22v-285q0 -123 108 -151v139q0 22 23 22h121q22 0 22 -22v-131l12 2l95 28v398q0 22 22 22h182q23 0 23 -22v-948q0 -23 -23 -23h-182q-22 0 -22 23v344l-56 -17l-51 -12v-174q0 -23 -22 -23h-121q-23 0 -23 23v160q-160 8 -248 96 t-88 242z" />
<glyph unicode="&#x4ba;" horiz-adv-x="1339" d="M156 23v1386q0 23 22 23h189q22 0 22 -23v-477l103 35q119 41 268 41q219 0 340 -124t121 -347v-514q0 -23 -23 -23h-186q-23 0 -23 23v477q0 146 -63.5 221.5t-186.5 75.5q-100 0 -202 -31l-148 -49v-694q0 -23 -22 -23h-189q-22 0 -22 23z" />
<glyph unicode="&#x4bb;" horiz-adv-x="1071" d="M137 23v948q0 22 23 22h182q23 0 23 -22v-309l55 18q103 27 192 27q170 0 265.5 -89t95.5 -249v-346q0 -23 -23 -23h-182q-23 0 -23 23v319q0 75 -42.5 117.5t-120.5 42.5q-61 0 -123 -19l-94 -26v-434q0 -23 -23 -23h-182q-23 0 -23 23z" />
<glyph unicode="&#x4bc;" horiz-adv-x="1703" d="M70 793v161q0 23 22 23h189q22 0 22 -23v-161q0 -59 32.5 -89t90.5 -20l41 8v23q0 342 166 539.5t454 197.5q239 0 375.5 -119.5t136.5 -331.5q0 -320 -401 -391l-473 -84q34 -162 128.5 -249t233.5 -87q120 0 224 37l90 31q19 6 29 -14l55 -160q9 -18 -12 -29l-101 -32 q-134 -46 -285 -46q-233 0 -389 133t-209 371l-36 -6q-183 -32 -283 51.5t-100 266.5zM702 733l457 80q96 17 149.5 67.5t53.5 120.5q0 114 -73 177t-202 63q-173 0 -275.5 -129.5t-109.5 -378.5z" />
<glyph unicode="&#x4bd;" horiz-adv-x="1325" d="M55 582v96q0 22 23 22h158q22 0 22 -22v-96q0 -42 25 -64t67 -16l17 2q3 238 129.5 375t347.5 137q183 0 288 -87.5t105 -242.5q0 -117 -74.5 -185t-230.5 -91l-320 -50q15 -82 76.5 -129t161.5 -47q85 0 160 21l102 24q23 6 29 -16l41 -154q6 -21 -17 -28l-108 -27 q-105 -27 -207 -27q-185 0 -305 92.5t-160 258.5l-12 -2q-318 -49 -318 256zM590 537l305 49q60 9 88.5 33t28.5 67q0 58 -45.5 91.5t-126.5 33.5q-217 0 -250 -274z" />
<glyph unicode="&#x4be;" horiz-adv-x="1703" d="M70 793v161q0 23 22 23h189q22 0 22 -23v-161q0 -59 32.5 -89t90.5 -20l41 8v23q0 342 166 539.5t454 197.5q239 0 375.5 -119.5t136.5 -331.5q0 -320 -401 -391l-473 -84q34 -162 128.5 -249t233.5 -87q120 0 224 37l90 31q19 6 29 -14l55 -160q9 -18 -12 -29l-101 -32 q-105 -37 -207 -43v-342q0 -23 -22 -23h-176q-23 0 -23 23v354q-176 37 -293.5 163.5t-161.5 325.5l-36 -6q-183 -32 -283 51.5t-100 266.5zM702 733l457 80q96 17 149.5 67.5t53.5 120.5q0 114 -73 177t-202 63q-173 0 -275.5 -129.5t-109.5 -378.5z" />
<glyph unicode="&#x4bf;" horiz-adv-x="1325" d="M55 582v96q0 22 23 22h158q22 0 22 -22v-96q0 -42 25 -64t67 -16l17 2q3 238 129.5 375t347.5 137q183 0 288 -87.5t105 -242.5q0 -117 -73 -185t-228 -91l-324 -50q15 -82 76.5 -129t161.5 -47q85 0 160 21l102 24q23 6 29 -16l41 -154q6 -21 -17 -28l-108 -27 q-67 -18 -135 -24v-277q0 -22 -23 -22h-168q-22 0 -22 22v291q-126 30 -208.5 116t-115.5 218l-12 -2q-318 -49 -318 256zM590 537l309 49q113 17 113 100q0 58 -45.5 91.5t-126.5 33.5q-217 0 -250 -274z" />
<glyph unicode="&#x4c0;" horiz-adv-x="546" d="M158 23v1386q0 23 22 23h187q22 0 22 -23v-1386q0 -23 -22 -23h-187q-22 0 -22 23z" />
<glyph unicode="&#x4c1;" horiz-adv-x="1955" d="M100.5 7.5q-4.5 7.5 1.5 19.5l236 450q105 186 235 248q9 3 9 12t-9 13q-131 54 -223 223l-227 432q-13 27 16 27h201q18 0 27 -17l168 -307q29 -54 54 -93t62 -84t80.5 -69t89.5 -24h41v571q0 23 23 23h186q23 0 23 -23v-571h41q46 0 89 23.5t81 70t62 83t56 93.5 l168 307q9 17 27 17h201q29 0 16 -27l-227 -432q-92 -169 -226 -223q-9 -4 -9 -13t9 -12q127 -61 236 -248l235 -450q13 -27 -16 -27h-201q-18 0 -26 16l-178 326q-23 43 -32 59t-33 55.5t-38 57t-39 45.5t-46.5 40.5t-50 23t-58.5 10.5h-41v-610q0 -23 -23 -23h-186 q-23 0 -23 23v610h-43q-29 0 -57.5 -10.5t-49.5 -23t-46 -40.5t-39.5 -45.5t-38 -57t-32.5 -55.5t-32 -59l-178 -326q-8 -16 -27 -16h-200q-14 0 -18.5 7.5zM694 1798v25q0 22 23 22h135q22 0 22 -22v-19q0 -86 105 -86q102 0 102 86v19q0 22 23 22h135q23 0 23 -22v-25 q0 -117 -70 -173t-213 -56q-146 0 -215.5 56t-69.5 173z" />
<glyph unicode="&#x4c2;" horiz-adv-x="1566" d="M98.5 7.5q-4.5 7.5 1.5 19.5l160 292q37 68 77.5 110t92.5 65q9 4 9 10.5t-9 9.5q-88 38 -160 170l-153 283q-13 26 16 26h197q18 0 26 -16l111 -199q40 -72 87 -123t93 -51h23v367q0 22 22 22h182q23 0 23 -22v-367h25q45 0 92 51.5t86 122.5l108 199q8 16 27 16h199 q29 0 16 -26l-154 -283q-73 -135 -159 -170q-9 -3 -8.5 -9t8.5 -11q53 -23 92.5 -64.5t77.5 -110.5l159 -292q6 -12 1.5 -19.5t-17.5 -7.5h-197q-18 0 -26 16l-142 256q-74 127 -157 127h-31v-376q0 -23 -23 -23h-182q-22 0 -22 23v376h-31q-42 0 -84 -35t-74 -92l-141 -256 q-8 -16 -27 -16h-196q-14 0 -18.5 7.5zM512 1397v49q0 22 23 22h118q23 0 23 -22v-51q0 -48 28 -74.5t80 -26.5t80.5 26.5t28.5 74.5v51q0 22 22 22h119q23 0 23 -22v-49q0 -119 -72 -185.5t-201 -66.5q-128 0 -200 67t-72 185z" />
<glyph unicode="&#x4c3;" horiz-adv-x="1380" d="M158 23v1386q0 23 22 23h187q22 0 22 -23v-571h45q58 0 115 24t104 65t84.5 85.5t69.5 95.5l192 309q12 15 29 15h205q14 0 18.5 -8t-2.5 -19l-229 -375q-115 -184 -238 -244q-9 -4 -11.5 -9.5t0.5 -9.5t11 -5q216 -46 340.5 -184.5t124.5 -358.5v-199q0 -193 -107 -306 t-294 -113q-79 0 -187 30l-51 17q-23 7 -14 28l53 154q10 20 29 14l47 -14q55 -16 123 -16q79 0 123.5 55t44.5 151v199q0 189 -141 301.5t-375 112.5h-109v-610q0 -23 -22 -23h-187q-22 0 -22 23z" />
<glyph unicode="&#x4c4;" horiz-adv-x="1093" d="M137 23v948q0 22 23 22h182q23 0 23 -22v-367h32q103 0 213 164l135 211q11 14 29 14h201q13 0 17.5 -7.5t-1.5 -18.5l-178 -285q-59 -89 -149 -143q-10 -5 -9.5 -10.5t11.5 -8.5q162 -30 244.5 -132.5t82.5 -252.5v-260q0 -156 -92 -247t-254 -91q-78 0 -166 29l-28 10 q-24 7 -15 29l49 147q11 21 29 15l33 -11q52 -12 90 -12q62 0 93.5 34.5t31.5 96.5v260q0 126 -89.5 196t-246.5 70h-63v-378q0 -23 -23 -23h-182q-23 0 -23 23z" />
<glyph unicode="&#x4c5;" horiz-adv-x="1566" d="M37 127q-7 23 10 31l74 39q101 57 149.5 183.5t48.5 336.5v692q0 23 23 23h936q22 0 22 -23v-1202h148q12 0 17.5 -7t2.5 -18l-131 -547q-3 -20 -24 -20h-174q-12 0 -18 7t-3 18l88 360h-116q-23 0 -23 23v1202h-514v-508q0 -271 -83.5 -443t-260.5 -266l-72 -39 q-20 -13 -31 8z" />
<glyph unicode="&#x4c6;" horiz-adv-x="1255" d="M43 131q-10 23 10 31l60 28q139 75 139 302v479q0 22 22 22h736q22 0 22 -22v-768h121q12 0 18 -7t3 -18l-130 -479q-6 -18 -26 -18h-166q-12 0 -18 7t-3 17l82 295h-86q-22 0 -22 23v768h-326v-299q0 -179 -67 -297.5t-211 -190.5l-60 -29q-20 -9 -30 11z" />
<glyph unicode="&#x4c7;" horiz-adv-x="1437" d="M158 23v1386q0 23 22 23h187q22 0 22 -23v-571h658v571q0 23 22 23h188q23 0 23 -23v-1382q0 -201 -107.5 -313.5t-298.5 -112.5q-95 0 -192 32l-49 17q-21 10 -12 28l55 154q9 21 29 14l45 -14q62 -18 124 -18q81 0 127 57t46 156v606h-658v-610q0 -23 -22 -23h-187 q-22 0 -22 23z" />
<glyph unicode="&#x4c8;" horiz-adv-x="1128" d="M137 23v948q0 22 23 22h182q23 0 23 -22v-367h397v367q0 22 22 22h185q22 0 22 -22v-1086q0 -163 -94 -255.5t-258 -92.5q-78 0 -172 31l-41 14q-22 7 -12 27l51 149q7 22 27 15l47 -15q46 -14 90 -14q66 0 99.5 37.5t33.5 103.5v516h-397v-378q0 -23 -23 -23h-182 q-23 0 -23 23z" />
<glyph unicode="&#x4c9;" horiz-adv-x="1546" d="M158 23v1386q0 23 22 23h187q22 0 22 -23v-571h658v571q0 23 22 23h188q23 0 23 -23v-1202h147q12 0 18 -7t3 -18l-131 -547q-3 -20 -25 -20h-174q-12 0 -17.5 7t-2.5 18l88 360h-117q-22 0 -22 23v610h-658v-610q0 -23 -22 -23h-187q-22 0 -22 23z" />
<glyph unicode="&#x4ca;" horiz-adv-x="1214" d="M137 23v948q0 22 23 22h182q23 0 23 -22v-367h397v367q0 22 22 22h185q22 0 22 -22v-768h119q12 0 17.5 -7t2.5 -18l-129 -479q-6 -18 -26 -18h-166q-12 0 -18 7t-3 17l82 295h-86q-22 0 -22 23v378h-397v-378q0 -23 -23 -23h-182q-23 0 -23 23z" />
<glyph unicode="&#x4cb;" horiz-adv-x="1339" d="M119 920v489q0 23 22 23h187q22 0 22 -23v-465q0 -140 63.5 -212.5t186.5 -72.5q102 0 203 33l147 49v668q0 23 23 23h188q23 0 23 -23v-1386q0 -23 -23 -23h-151v-362q0 -23 -23 -23h-174q-22 0 -22 23v546q0 23 22 23h137v315l-102 -33q-119 -43 -268 -43 q-219 0 -340 125t-121 349z" />
<glyph unicode="&#x4cc;" horiz-adv-x="1071" d="M98 635v336q0 22 23 22h182q23 0 23 -22v-314q0 -74 42.5 -114.5t120.5 -40.5q71 0 123 16l95 27v426q0 22 22 22h182q23 0 23 -22v-948q0 -23 -23 -23h-127v-297q0 -22 -22 -22h-168q-23 0 -23 22v477q0 23 23 23h113v137l-56 -18q-91 -27 -192 -27q-172 0 -266.5 89.5 t-94.5 250.5z" />
<glyph unicode="&#x4cd;" horiz-adv-x="1798" d="M158 23v1386q0 23 22 23h287q21 0 27 -19q23 -85 51 -151l205 -492q41 -104 79 -238q3 -11 9 -15.5t11.5 0t8.5 15.5q38 136 76 238l207 490q34 81 55 153q3 19 25 19h286q23 0 23 -23v-1202h149q12 0 18 -7t3 -18l-131 -547q-3 -20 -25 -20h-174q-12 0 -17.5 7t-2.5 18 l88 360h-117q-23 0 -23 23v663q0 254 19 393q3 20 -9.5 23t-19.5 -17q-21 -58 -65 -163l-195 -459q-28 -67 -74 -203q-6 -18 -26 -18h-170q-19 0 -25 18q-46 136 -74 203l-194 459q-44 96 -68 163q-7 20 -18.5 17t-9.5 -23q20 -146 20 -393v-663q0 -23 -22 -23h-187 q-22 0 -22 23z" />
<glyph unicode="&#x4ce;" horiz-adv-x="1411" d="M137 23v948q0 22 23 22h266q22 0 25 -20q14 -53 32 -96l117 -259q38 -107 51 -165q2 -9 6.5 -12t8.5 0t6 12t51 165l119 259q18 43 32 96q3 20 25 20h266q23 0 23 -22v-768h121q12 0 17.5 -7t2.5 -18l-129 -479q-6 -18 -26 -18h-166q-12 0 -18 7t-3 17l82 295h-86 q-22 0 -22 23v301q0 227 16 348q2 14 -7.5 16.5t-13.5 -10.5q-18 -39 -45 -107l-118 -260q-26 -60 -39 -110q-3 -19 -25 -19h-135q-22 0 -25 19q-10 39 -39 110l-118 260l-45 107q-4 13 -14 10.5t-7 -16.5q19 -124 19 -348v-301q0 -23 -23 -23h-182q-23 0 -23 23z" />
<glyph unicode="&#x4cf;" horiz-adv-x="546" d="M158 23v1386q0 23 22 23h187q22 0 22 -23v-1386q0 -23 -22 -23h-187q-22 0 -22 23z" />
<glyph unicode="&#x4d0;" horiz-adv-x="1478" d="M78 27l352 899q108 291 158 485q3 21 24 21h252q22 0 25 -19q53 -198 160 -487l352 -899q10 -27 -19 -27h-196q-19 0 -25 18l-100 256h-643l-101 -256q-6 -18 -24 -18h-197q-28 0 -18 27zM455 1798v25q0 22 22 22h135q23 0 23 -22v-19q0 -86 104 -86q103 0 103 86v19 q0 22 22 22h135q23 0 23 -22v-25q0 -117 -70 -173t-213 -56q-146 0 -215 56t-69 173zM498 481h483l-109 269q-89 241 -116 378q-3 11 -10 15.5t-14 0t-9 -15.5q-26 -134 -119 -378z" />
<glyph unicode="&#x4d1;" horiz-adv-x="1054" d="M78 287q0 147 97 231t276 84h256v12q0 94 -59 143.5t-173 49.5q-87 0 -160 -21l-73 -22q-23 -6 -29 16l-45 152q-6 23 16 29l78 22q109 31 223 31q208 0 327.5 -103t119.5 -288v-600q0 -23 -23 -23h-102q-21 0 -27 18l-16 64q-6 15 -12.5 19.5t-15.5 1t-23 -16.5 q-98 -109 -281 -109q-169 0 -261.5 82t-92.5 228zM254 1397v49q0 22 22 22h119q23 0 23 -22v-51q0 -48 28 -74.5t80 -26.5t80.5 26.5t28.5 74.5v51q0 22 22 22h119q23 0 23 -22v-49q0 -119 -72 -185.5t-201 -66.5q-128 0 -200 67t-72 185zM303 307q0 -60 40.5 -94.5 t113.5 -34.5q122 0 186 59t64 173v14h-256q-73 0 -110.5 -31.5t-37.5 -85.5z" />
<glyph unicode="&#x4d2;" horiz-adv-x="1478" d="M78 27l352 899q108 291 158 485q3 21 24 21h252q22 0 25 -19q53 -198 160 -487l352 -899q10 -27 -19 -27h-196q-19 0 -25 18l-100 256h-643l-101 -256q-6 -18 -24 -18h-197q-28 0 -18 27zM408 1716q0 62 35 94.5t102 32.5q65 0 100 -33t35 -94t-35 -93t-100 -32 q-137 0 -137 125zM498 481h483l-109 269q-89 241 -116 378q-3 11 -10 15.5t-14 0t-9 -15.5q-26 -134 -119 -378zM795 1716q0 62 35 94.5t102 32.5q65 0 100 -33t35 -94t-35 -93t-100 -32q-137 0 -137 125z" />
<glyph unicode="&#x4d3;" horiz-adv-x="1054" d="M78 287q0 147 97 231t276 84h256v12q0 94 -59 143.5t-173 49.5q-87 0 -160 -21l-73 -22q-23 -6 -29 16l-45 152q-6 23 16 29l78 22q109 31 223 31q208 0 327.5 -103t119.5 -288v-600q0 -23 -23 -23h-102q-21 0 -27 18l-16 64q-6 15 -12.5 19.5t-15.5 1t-23 -16.5 q-98 -109 -281 -109q-169 0 -261.5 82t-92.5 228zM219 1358q0 60 33.5 94.5t91.5 34.5q60 0 93.5 -34.5t33.5 -94.5q0 -64 -33 -97.5t-94 -33.5q-59 0 -92 33.5t-33 97.5zM303 307q0 -60 40.5 -94.5t113.5 -34.5q122 0 186 59t64 173v14h-256q-73 0 -110.5 -31.5 t-37.5 -85.5zM582 1358q0 60 33.5 94.5t91.5 34.5q60 0 93.5 -34.5t33.5 -94.5q0 -64 -33 -97.5t-94 -33.5q-59 0 -92 33.5t-33 97.5z" />
<glyph unicode="&#x4d4;" horiz-adv-x="1908" d="M78 27l334 847q133 357 176 537q3 21 24 21h1176q12 0 17 -7.5t1 -17.5l-45 -164q-6 -18 -26 -18h-752q-26 0 -22 -31q5 -39 47 -152l79 -204h539q23 0 23 -23v-160q0 -22 -23 -22h-459l168 -426h451q22 0 22 -23v-161q0 -23 -22 -23h-600q-19 0 -25 18l-100 256h-643 l-101 -256q-6 -18 -24 -18h-197q-28 0 -18 27zM496 481h485l-123 310q-67 181 -102 335q-3 13 -9.5 18t-13.5 0t-10 -18q-37 -151 -105 -333z" />
<glyph unicode="&#x4d5;" horiz-adv-x="1660" d="M78 287q0 148 98.5 230.5t276.5 82.5h254v29q0 80 -59.5 130t-164.5 50q-89 0 -166 -23l-75 -22q-23 -6 -29 16l-45 150q-6 22 16 28l99 29q96 27 202 27q222 0 338 -154q21 -21 39 0q54 74 137 114t181 40q192 0 292.5 -86.5t100.5 -235.5q0 -124 -78 -191.5t-240 -92.5 l-301 -50q21 -79 80 -126.5t146 -47.5q88 0 174 21l88 22q22 6 28 -16l41 -154q6 -22 -16 -28l-92 -23q-113 -29 -223 -29q-222 0 -340 175q-18 27 -37 2q-117 -177 -359 -177q-172 0 -269 83t-97 227zM303 307q0 -60 41.5 -94.5t114.5 -34.5q125 0 186.5 59t61.5 189h-263 q-66 0 -103.5 -31t-37.5 -88zM936 537l289 45q127 20 127 106q0 50 -43.5 85.5t-128.5 35.5q-106 0 -170 -67.5t-74 -204.5z" />
<glyph unicode="&#x4d6;" horiz-adv-x="1241" d="M158 23v1386q0 23 22 23h938q12 0 18 -7t3 -18l-45 -164q-6 -18 -27 -18h-678v-387h569q23 0 23 -23v-160q0 -22 -23 -22h-569v-426h729q23 0 23 -23v-161q0 -23 -23 -23h-938q-22 0 -22 23zM369 1798v25q0 22 22 22h135q23 0 23 -22v-19q0 -86 104 -86q103 0 103 86v19 q0 22 22 22h135q23 0 23 -22v-25q0 -117 -70 -173t-213 -56q-146 0 -215 56t-69 173z" />
<glyph unicode="&#x4d7;" horiz-adv-x="1046" d="M88 496q0 241 126 379.5t349 138.5q184 0 289.5 -87t105.5 -239q0 -119 -73.5 -187t-227.5 -91l-321 -50q18 -83 78 -129.5t155 -46.5q97 0 162 21l90 22q23 6 29 -16l41 -154q6 -21 -17 -28l-94 -25q-111 -27 -209 -27q-229 0 -356 139t-127 380zM264 1397v49 q0 22 23 22h119q22 0 22 -22v-51q0 -48 28.5 -74.5t80.5 -26.5t80 26.5t28 74.5v51q0 22 23 22h118q23 0 23 -22v-49q0 -119 -71.5 -185.5t-200.5 -66.5q-128 0 -200.5 67t-72.5 185zM315 537l308 49q110 18 110 98q0 61 -45 93t-129 32q-105 0 -168.5 -67.5t-75.5 -204.5z " />
<glyph unicode="&#x4d8;" horiz-adv-x="1331" d="M94 414q0 171 99.5 269.5t304.5 137.5l469 86q-30 153 -123 243.5t-234 90.5q-134 0 -252 -41l-88 -29q-18 -6 -28 15l-52 153q-9 22 15 29l94 31q167 53 311 53q288 0 452.5 -197t164.5 -544q0 -340 -166.5 -537t-452.5 -197q-243 0 -378.5 116t-135.5 321zM330 414 q0 -105 73.5 -164.5t204.5 -59.5q178 0 278 137.5t103 368.5l-454 -84q-107 -20 -156 -67t-49 -131z" />
<glyph unicode="&#x4d9;" horiz-adv-x="1048" d="M90 305q0 119 73.5 187.5t227.5 91.5l322 49q-19 83 -80 129.5t-156 46.5q-97 0 -162 -21l-88 -22q-21 -6 -28 14l-43 154q-6 23 16 29l96 24q97 27 209 27q229 0 356.5 -138t127.5 -378t-127 -380.5t-349 -140.5q-185 0 -290 87.5t-105 240.5zM315 309q0 -61 45 -93 t129 -32q103 0 167.5 68t76.5 203l-307 -47q-111 -18 -111 -99z" />
<glyph unicode="&#x4da;" horiz-adv-x="1331" d="M94 414q0 171 99.5 269.5t304.5 137.5l469 86q-30 153 -123 243.5t-234 90.5q-134 0 -252 -41l-88 -29q-18 -6 -28 15l-52 153q-9 22 15 29l94 31q167 53 311 53q288 0 452.5 -197t164.5 -544q0 -340 -166.5 -537t-452.5 -197q-243 0 -378.5 116t-135.5 321zM305 1716 q0 62 35 94.5t102 32.5q65 0 100.5 -33t35.5 -94t-35.5 -93t-100.5 -32q-137 0 -137 125zM330 414q0 -105 73.5 -164.5t204.5 -59.5q178 0 278 137.5t103 368.5l-454 -84q-107 -20 -156 -67t-49 -131zM692 1716q0 62 35 94.5t102 32.5q65 0 100.5 -33t35.5 -94t-35.5 -93 t-100.5 -32q-137 0 -137 125z" />
<glyph unicode="&#x4db;" horiz-adv-x="1048" d="M90 305q0 119 73.5 187.5t227.5 91.5l322 49q-19 83 -80 129.5t-156 46.5q-97 0 -162 -21l-88 -22q-21 -6 -28 14l-43 154q-6 23 16 29l96 24q97 27 209 27q229 0 356.5 -138t127.5 -378t-127 -380.5t-349 -140.5q-185 0 -290 87.5t-105 240.5zM207 1358q0 60 33.5 94.5 t91.5 34.5q60 0 93.5 -34.5t33.5 -94.5q0 -64 -33 -97.5t-94 -33.5q-59 0 -92 33.5t-33 97.5zM315 309q0 -61 45 -93t129 -32q103 0 167.5 68t76.5 203l-307 -47q-111 -18 -111 -99zM569 1358q0 60 33.5 94.5t91.5 34.5q60 0 93.5 -34.5t33.5 -94.5q0 -64 -33 -97.5 t-94 -33.5q-59 0 -92 33.5t-33 97.5z" />
<glyph unicode="&#x4dc;" horiz-adv-x="1955" d="M100.5 7.5q-4.5 7.5 1.5 19.5l236 450q105 186 235 248q9 3 9 12t-9 13q-131 54 -223 223l-227 432q-13 27 16 27h201q18 0 27 -17l168 -307q29 -54 54 -93t62 -84t80.5 -69t89.5 -24h41v571q0 23 23 23h186q23 0 23 -23v-571h41q46 0 89 23.5t81 70t62 83t56 93.5 l168 307q9 17 27 17h201q29 0 16 -27l-227 -432q-92 -169 -226 -223q-9 -4 -9 -13t9 -12q127 -61 236 -248l235 -450q13 -27 -16 -27h-201q-18 0 -26 16l-178 326q-23 43 -32 59t-33 55.5t-38 57t-39 45.5t-46.5 40.5t-50 23t-58.5 10.5h-41v-610q0 -23 -23 -23h-186 q-23 0 -23 23v610h-43q-29 0 -57.5 -10.5t-49.5 -23t-46 -40.5t-39.5 -45.5t-38 -57t-32.5 -55.5t-32 -59l-178 -326q-8 -16 -27 -16h-200q-14 0 -18.5 7.5zM647 1716q0 62 35 94.5t102 32.5q65 0 100.5 -33t35.5 -94t-35.5 -93t-100.5 -32q-137 0 -137 125zM1034 1716 q0 62 35 94.5t102 32.5q65 0 100.5 -33t35.5 -94t-35.5 -93t-100.5 -32q-137 0 -137 125z" />
<glyph unicode="&#x4dd;" horiz-adv-x="1566" d="M98.5 7.5q-4.5 7.5 1.5 19.5l160 292q37 68 77.5 110t92.5 65q9 4 9 10.5t-9 9.5q-88 38 -160 170l-153 283q-13 26 16 26h197q18 0 26 -16l111 -199q40 -72 87 -123t93 -51h23v367q0 22 22 22h182q23 0 23 -22v-367h25q45 0 92 51.5t86 122.5l108 199q8 16 27 16h199 q29 0 16 -26l-154 -283q-73 -135 -159 -170q-9 -3 -8.5 -9t8.5 -11q53 -23 92.5 -64.5t77.5 -110.5l159 -292q6 -12 1.5 -19.5t-17.5 -7.5h-197q-18 0 -26 16l-142 256q-74 127 -157 127h-31v-376q0 -23 -23 -23h-182q-22 0 -22 23v376h-31q-42 0 -84 -35t-74 -92l-141 -256 q-8 -16 -27 -16h-196q-14 0 -18.5 7.5zM477 1358q0 60 33.5 94.5t91.5 34.5q60 0 93.5 -34.5t33.5 -94.5q0 -64 -33 -97.5t-94 -33.5q-59 0 -92 33.5t-33 97.5zM840 1358q0 60 33.5 94.5t91.5 34.5q60 0 93.5 -34.5t33.5 -94.5q0 -64 -33 -97.5t-94 -33.5q-59 0 -92 33.5 t-33 97.5z" />
<glyph unicode="&#x4de;" horiz-adv-x="1282" d="M123 100l55 154q9 21 29 14l129 -39q124 -41 274 -41t238 58.5t88 163.5q0 112 -85.5 167.5t-232.5 55.5h-184q-22 0 -22 22v160q0 23 22 23h182q124 0 197.5 55.5t73.5 144.5q0 93 -74 148t-203 55q-153 0 -274 -39l-113 -37q-18 -6 -28 15l-56 155q-9 22 15 29l114 37 q161 51 348 51q231 0 366.5 -105t135.5 -284q0 -208 -205 -307q-11 -5 -15 -11t0 -12t15 -10q121 -41 188.5 -125t67.5 -205q0 -185 -150.5 -300.5t-404.5 -115.5q-170 0 -348 54l-129 41q-23 7 -14 28zM293 1716q0 62 35 94.5t102 32.5q65 0 100 -33t35 -94t-35 -93 t-100 -32q-137 0 -137 125zM680 1716q0 62 35 94.5t102 32.5q65 0 100 -33t35 -94t-35 -93t-100 -32q-137 0 -137 125z" />
<glyph unicode="&#x4df;" horiz-adv-x="991" d="M100 63l45 154q6 19 27 16l100 -24q98 -25 203 -25q93 0 149 31.5t56 85.5q0 48 -54.5 78.5t-142.5 30.5h-145q-23 0 -23 22v143q0 23 23 23h145q73 0 116.5 29.5t43.5 79.5q0 46 -47 75t-123 29q-101 0 -201 -23l-88 -22q-21 -6 -28 14l-43 154q-6 23 16 29l96 24 q113 29 248 29q182 0 286.5 -77t104.5 -208q0 -73 -34.5 -128.5t-108.5 -80.5q-12 -4 -12 -12t12 -12q182 -55 182 -222q0 -137 -114 -218t-314 -81q-111 0 -256 33l-102 25q-23 7 -17 28zM176 1358q0 60 33.5 94.5t91.5 34.5q60 0 93.5 -34.5t33.5 -94.5q0 -64 -33 -97.5 t-94 -33.5q-59 0 -92 33.5t-33 97.5zM539 1358q0 60 33.5 94.5t91.5 34.5q60 0 93.5 -34.5t33.5 -94.5q0 -64 -33 -97.5t-94 -33.5q-59 0 -92 33.5t-33 97.5z" />
<glyph unicode="&#x4e0;" horiz-adv-x="1271" d="M106 100l56 152q9 20 28 14l129 -41q119 -35 275 -35q154 0 240 59t86 163q0 102 -81 158.5t-229 56.5h-159q-23 0 -23 22v164q0 16 10 29q38 38 84 100l131 164q27 39 76 88q20 19 16.5 26t-30.5 7q-55 -2 -166 -2h-371q-22 0 -22 22v162q0 23 22 23h899q18 0 27 -15 l8 -14q10 -16 -2 -31q-98 -109 -162 -196l-172 -230q-53 -71 -82 -98q-11 -12 -6.5 -18.5t17.5 -6.5q209 -9 328.5 -118.5t119.5 -296.5q0 -197 -149 -314t-406 -117q-168 0 -346 52l-131 43q-24 7 -15 28z" />
<glyph unicode="&#x4e1;" horiz-adv-x="1011" d="M74 -369l47 152q7 20 26 14l72 -18q113 -35 217 -35q129 0 201 59t72 166q0 103 -65 162t-183 59h-135q-23 0 -23 23v160q0 18 10 28q47 64 74 111l105 162q29 56 55 86q26 33 -10 33q-51 -2 -138 -2h-284q-23 0 -23 22v158q0 22 23 22h749q18 0 29 -14v-2q10 -16 -2 -31 q-30 -42 -137 -207l-146 -239q-35 -64 -67 -99q-10 -14 -8 -18t16 -6q184 -12 284.5 -117t100.5 -287q0 -209 -130.5 -322.5t-363.5 -113.5q-124 0 -284 45l-66 21q-22 6 -16 28z" />
<glyph unicode="&#x4e2;" horiz-adv-x="1470" d="M158 23v1386q0 23 22 23h189q22 0 22 -23v-772q0 -147 -18 -285q-3 -18 8 -21.5t20 13.5q29 61 72 137l438 723q66 113 107 211q10 17 26 17h246q23 0 23 -23v-1386q0 -23 -23 -23h-186q-23 0 -23 23v776q0 171 17 280q3 19 -8.5 23.5t-18.5 -15.5q-27 -55 -72 -137 l-438 -723q-59 -101 -108 -211q-10 -16 -27 -16h-246q-22 0 -22 23zM424 1649v120q0 23 22 23h598q23 0 23 -23v-120q0 -23 -23 -23h-598q-22 0 -22 23z" />
<glyph unicode="&#x4e3;" horiz-adv-x="1163" d="M137 23v948q0 22 23 22h184q23 0 23 -22v-387q0 -123 -21 -258q-2 -13 8 -16.5t17 12.5q6 12 27.5 51.5t31.5 60.5l246 395q45 85 72 148q6 16 24 16h234q22 0 22 -22v-948q0 -23 -22 -23h-183q-22 0 -22 23v385q0 155 16 258q3 14 -6.5 18t-15.5 -12l-62 -115l-246 -393 q-44 -83 -71 -146q-6 -18 -25 -18h-231q-23 0 -23 23zM309 1253v115q0 23 23 23h502q22 0 22 -23v-115q0 -22 -22 -22h-502q-23 0 -23 22z" />
<glyph unicode="&#x4e4;" horiz-adv-x="1470" d="M158 23v1386q0 23 22 23h189q22 0 22 -23v-772q0 -147 -18 -285q-3 -18 8 -21.5t20 13.5q29 61 72 137l438 723q66 113 107 211q10 17 26 17h246q23 0 23 -23v-1386q0 -23 -23 -23h-186q-23 0 -23 23v776q0 171 17 280q3 19 -8.5 23.5t-18.5 -15.5q-27 -55 -72 -137 l-438 -723q-59 -101 -108 -211q-10 -16 -27 -16h-246q-22 0 -22 23zM416 1712q0 62 35 94.5t102 32.5q65 0 100 -33t35 -94t-35 -93t-100 -32q-137 0 -137 125zM803 1712q0 62 35 94.5t102 32.5q65 0 100 -33t35 -94t-35 -93t-100 -32q-137 0 -137 125z" />
<glyph unicode="&#x4e5;" horiz-adv-x="1163" d="M137 23v948q0 22 23 22h184q23 0 23 -22v-387q0 -123 -21 -258q-2 -13 8 -16.5t17 12.5q6 12 27.5 51.5t31.5 60.5l246 395q45 85 72 148q6 16 24 16h234q22 0 22 -22v-948q0 -23 -22 -23h-183q-22 0 -22 23v385q0 155 16 258q3 14 -6.5 18t-15.5 -12l-62 -115l-246 -393 q-44 -83 -71 -146q-6 -18 -25 -18h-231q-23 0 -23 23zM276 1358q0 60 33.5 94.5t91.5 34.5q60 0 93.5 -34.5t33.5 -94.5q0 -64 -33 -97.5t-94 -33.5q-59 0 -92 33.5t-33 97.5zM639 1358q0 60 33.5 94.5t91.5 34.5q60 0 93.5 -34.5t33.5 -94.5q0 -64 -33 -97.5t-94 -33.5 q-59 0 -92 33.5t-33 97.5z" />
<glyph unicode="&#x4e6;" d="M104 717q0 340 166.5 537.5t456.5 197.5q289 0 456 -197.5t167 -537.5q0 -342 -167.5 -541t-455.5 -199q-290 0 -456.5 199t-166.5 541zM340 717q0 -247 102.5 -387t284.5 -140q181 0 283 140t102 387t-101.5 385.5t-283.5 138.5q-183 0 -285 -138t-102 -386zM395 1716 q0 62 35 94.5t102 32.5q65 0 100.5 -33t35.5 -94t-35.5 -93t-100.5 -32q-137 0 -137 125zM782 1716q0 62 35.5 94.5t102.5 32.5q65 0 100 -33t35 -94t-35 -93t-100 -32q-138 0 -138 125z" />
<glyph unicode="&#x4e7;" horiz-adv-x="1120" d="M88 498q0 237 127 376.5t346 139.5q218 0 344.5 -139.5t126.5 -376.5q0 -240 -126.5 -380.5t-344.5 -140.5q-219 0 -346 140.5t-127 380.5zM254 1358q0 60 33.5 94.5t91.5 34.5q60 0 93.5 -34.5t33.5 -94.5q0 -64 -33 -97.5t-94 -33.5q-59 0 -92 33.5t-33 97.5zM313 498 q0 -148 65.5 -231t182.5 -83q114 0 180 83.5t66 230.5q0 146 -66 228.5t-180 82.5q-117 0 -182.5 -82.5t-65.5 -228.5zM616 1358q0 60 33.5 94.5t91.5 34.5q60 0 93.5 -34.5t33.5 -94.5q0 -64 -33 -97.5t-94 -33.5q-59 0 -92 33.5t-33 97.5z" />
<glyph unicode="&#x4e8;" d="M104 717q0 340 166.5 537.5t456.5 197.5q289 0 456 -197.5t167 -537.5q0 -342 -167.5 -541t-455.5 -199q-290 0 -456.5 199t-166.5 541zM344 633q17 -208 117.5 -325.5t265.5 -117.5t264.5 117t116.5 326h-764zM346 838h760q-25 193 -123 298t-256 105 q-159 0 -257.5 -105t-123.5 -298z" />
<glyph unicode="&#x4e9;" horiz-adv-x="1122" d="M88 498q0 238 127 378t346 140t346 -140t127 -378q0 -240 -127 -380.5t-346 -140.5t-346 140.5t-127 380.5zM322 408q19 -107 80.5 -165.5t158.5 -58.5q96 0 158.5 59t81.5 165h-479zM322 598h477q-20 101 -82 157t-156 56t-155.5 -55.5t-83.5 -157.5z" />
<glyph unicode="&#x4ea;" d="M104 717q0 340 166.5 537.5t456.5 197.5q289 0 456 -197.5t167 -537.5q0 -342 -167.5 -541t-455.5 -199q-290 0 -456.5 199t-166.5 541zM344 633q17 -208 117.5 -325.5t265.5 -117.5t264.5 117t116.5 326h-764zM346 838h760q-25 193 -123 298t-256 105 q-159 0 -257.5 -105t-123.5 -298zM399 1716q0 62 35.5 94.5t102.5 32.5q65 0 100 -33t35 -94t-35 -93t-100 -32q-138 0 -138 125zM786 1716q0 62 35.5 94.5t102.5 32.5q65 0 100 -33t35 -94t-35 -93t-100 -32q-138 0 -138 125z" />
<glyph unicode="&#x4eb;" horiz-adv-x="1122" d="M88 498q0 238 127 378t346 140t346 -140t127 -378q0 -240 -127 -380.5t-346 -140.5t-346 140.5t-127 380.5zM256 1364q0 60 33.5 94.5t91.5 34.5q60 0 93.5 -34.5t33.5 -94.5q0 -64 -33 -97.5t-94 -33.5q-59 0 -92 33.5t-33 97.5zM322 408q19 -107 80.5 -165.5 t158.5 -58.5q96 0 158.5 59t81.5 165h-479zM322 598h477q-20 101 -82 157t-156 56t-155.5 -55.5t-83.5 -157.5zM618 1364q0 60 33.5 94.5t91.5 34.5q60 0 93.5 -34.5t33.5 -94.5q0 -64 -33 -97.5t-94 -33.5q-59 0 -92 33.5t-33 97.5z" />
<glyph unicode="&#x4ec;" horiz-adv-x="1263" d="M123 90l55 154q10 20 29 14l90 -31q107 -37 233 -37q169 0 271 115.5t119 327.5h-580q-23 0 -23 22v160q0 23 23 23h575q-23 192 -123.5 297.5t-261.5 105.5q-138 -3 -231 -35l-92 -30q-20 -7 -27 14l-53 158q-6 19 14 26l90 31q76 27 142 37t157 10q293 0 461 -197.5 t168 -537.5q0 -342 -168.5 -541t-460.5 -199q-85 0 -151.5 12t-151.5 42l-90 30q-24 7 -14 29zM236 1714q0 62 35 94.5t102 32.5q65 0 100 -33t35 -94t-35 -93t-100 -32q-137 0 -137 125zM623 1714q0 62 35 94.5t102 32.5q65 0 100 -33t35 -94t-35 -93t-100 -32 q-137 0 -137 125z" />
<glyph unicode="&#x4ed;" horiz-adv-x="980" d="M111 59l47 154q7 20 26 14l70 -20q84 -23 149 -23q109 0 173.5 58.5t82.5 165.5h-370q-23 0 -23 22v145q0 23 23 23h370q-43 211 -258 211q-67 0 -137 -23l-69 -18q-20 -7 -27 14l-49 154q-6 23 16 29l90 24q95 25 176 25q236 0 364 -137.5t128 -378.5 q0 -242 -127.5 -381.5t-359.5 -139.5q-98 0 -189 27l-90 27q-22 6 -16 28zM168 1358q0 60 33.5 94.5t91.5 34.5q60 0 93.5 -34.5t33.5 -94.5q0 -64 -33 -97.5t-94 -33.5q-59 0 -92 33.5t-33 97.5zM530 1358q0 60 33.5 94.5t91.5 34.5q60 0 93.5 -34.5t33.5 -94.5 q0 -64 -33 -97.5t-94 -33.5q-59 0 -92 33.5t-33 97.5z" />
<glyph unicode="&#x4ee;" horiz-adv-x="1396" d="M64.5 1424.5q4.5 7.5 17.5 7.5h203q17 0 26 -17l273 -522q85 -160 112 -268q3 -15 15 -15t18 15q65 177 109 268l252 522q10 17 26 17h203q26 0 16 -27l-501 -1040q-40 -85 -84.5 -148.5t-102.5 -114t-132 -76.5t-163 -26h-82q-22 0 -22 23v161q0 23 22 23h82 q86 0 137.5 54.5t51.5 133.5q0 51 -15.5 104t-64.5 146l-395 760q-6 12 -1.5 19.5zM377 1651v121q0 22 22 22h598q23 0 23 -22v-121q0 -23 -23 -23h-598q-22 0 -22 23z" />
<glyph unicode="&#x4ef;" horiz-adv-x="1148" d="M69 986q5 7 17 7h193q16 0 26 -16l184 -418q56 -132 78 -260q3 -12 10 -16.5t13.5 0t9.5 16.5q24 129 74 260l172 416q6 18 24 18h193q12 0 17 -7t1 -19l-442 -1076q-66 -171 -166 -251t-250 -80h-76q-22 0 -22 22v158q0 22 22 22h68q66 0 106 28t68 93l31 72 q14 32 15.5 70t-9 85t-28.5 97t-48 119l-280 641q-6 12 -1 19zM301 1253v115q0 23 23 23h501q23 0 23 -23v-115q0 -22 -23 -22h-501q-23 0 -23 22z" />
<glyph unicode="&#x4f0;" horiz-adv-x="1396" d="M64.5 1424.5q4.5 7.5 17.5 7.5h203q17 0 26 -17l273 -522q85 -160 112 -268q3 -15 15 -15t18 15q65 177 109 268l252 522q10 17 26 17h203q26 0 16 -27l-501 -1040q-40 -85 -84.5 -148.5t-102.5 -114t-132 -76.5t-163 -26h-82q-22 0 -22 23v161q0 23 22 23h82 q86 0 137.5 54.5t51.5 133.5q0 51 -15.5 104t-64.5 146l-395 760q-6 12 -1.5 19.5zM369 1716q0 62 35 94.5t102 32.5q65 0 100 -33t35 -94t-35 -93t-100 -32q-137 0 -137 125zM756 1716q0 62 35 94.5t102 32.5q65 0 100 -33t35 -94t-35 -93t-100 -32q-137 0 -137 125z" />
<glyph unicode="&#x4f1;" horiz-adv-x="1148" d="M69 986q5 7 17 7h193q16 0 26 -16l184 -418q56 -132 78 -260q3 -12 10 -16.5t13.5 0t9.5 16.5q24 129 74 260l172 416q6 18 24 18h193q12 0 17 -7t1 -19l-442 -1076q-66 -171 -166 -251t-250 -80h-76q-22 0 -22 22v158q0 22 22 22h68q66 0 106 28t68 93l31 72 q14 32 15.5 70t-9 85t-28.5 97t-48 119l-280 641q-6 12 -1 19zM268 1358q0 60 33.5 94.5t91.5 34.5q60 0 93.5 -34.5t33.5 -94.5q0 -64 -33 -97.5t-94 -33.5q-59 0 -92 33.5t-33 97.5zM631 1358q0 60 33.5 94.5t91.5 34.5q60 0 93.5 -34.5t33.5 -94.5q0 -64 -33 -97.5 t-94 -33.5q-59 0 -92 33.5t-33 97.5z" />
<glyph unicode="&#x4f2;" horiz-adv-x="1396" d="M64.5 1424.5q4.5 7.5 17.5 7.5h203q17 0 26 -17l273 -522q85 -160 112 -268q3 -15 15 -15t18 15q65 177 109 268l252 522q10 17 26 17h203q26 0 16 -27l-501 -1040q-40 -85 -84.5 -148.5t-102.5 -114t-132 -76.5t-163 -26h-82q-22 0 -22 23v161q0 23 22 23h82 q86 0 137.5 54.5t51.5 133.5q0 51 -15.5 104t-64.5 146l-395 760q-6 12 -1.5 19.5zM416 1616l86 211q9 18 26 18h191q29 0 16 -26l-114 -213q-9 -17 -27 -17h-160q-12 0 -17 7.5t-1 19.5zM770.5 1596.5q-4.5 7.5 1.5 19.5l107 213q8 16 26 16h193q12 0 16.5 -7.5t-2.5 -18.5 l-129 -215q-9 -15 -27 -15h-168q-13 0 -17.5 7.5z" />
<glyph unicode="&#x4f3;" horiz-adv-x="1148" d="M69 986q5 7 17 7h193q16 0 26 -16l184 -418q56 -132 78 -260q3 -12 10 -16.5t13.5 0t9.5 16.5q24 129 74 260l172 416q6 18 24 18h193q12 0 17 -7t1 -19l-442 -1076q-66 -171 -166 -251t-250 -80h-76q-22 0 -22 22v158q0 22 22 22h68q66 0 106 28t68 93l31 72 q14 32 15.5 70t-9 85t-28.5 97t-48 119l-280 641q-6 12 -1 19zM319 1186l80 264q6 18 27 18h160q28 0 18 -26l-102 -262q-6 -19 -25 -19h-139q-12 0 -17.5 7.5t-1.5 17.5zM643 1188l98 262q6 18 25 18h164q12 0 17 -7t-1 -19l-121 -264q-10 -17 -26 -17h-137q-29 0 -19 27z " />
<glyph unicode="&#x4f4;" horiz-adv-x="1339" d="M119 965v444q0 23 22 23h187q22 0 22 -23v-405q0 -147 63.5 -222t186.5 -75q104 0 203 30l147 49v623q0 23 23 23h188q23 0 23 -23v-1386q0 -23 -23 -23h-188q-23 0 -23 23v546l-102 -34q-119 -41 -268 -41q-219 0 -340 124.5t-121 346.5zM322 1716q0 62 35 94.5 t102 32.5q65 0 100 -33t35 -94t-35 -93t-100 -32q-137 0 -137 125zM709 1716q0 62 35 94.5t102 32.5q65 0 100 -33t35 -94t-35 -93t-100 -32q-137 0 -137 125z" />
<glyph unicode="&#x4f5;" horiz-adv-x="1071" d="M98 662v309q0 22 23 22h182q23 0 23 -22v-285q0 -74 43 -116t120 -42q57 0 123 17l95 28v398q0 22 22 22h182q23 0 23 -22v-948q0 -23 -23 -23h-182q-22 0 -22 23v344l-56 -17q-99 -26 -192 -26q-170 0 -265.5 89t-95.5 249zM209 1358q0 60 33.5 94.5t91.5 34.5 q60 0 93.5 -34.5t33.5 -94.5q0 -64 -33 -97.5t-94 -33.5q-59 0 -92 33.5t-33 97.5zM571 1358q0 60 33.5 94.5t91.5 34.5q60 0 93.5 -34.5t33.5 -94.5q0 -64 -33 -97.5t-94 -33.5q-59 0 -92 33.5t-33 97.5z" />
<glyph unicode="&#x4f6;" horiz-adv-x="1185" d="M158 23v1386q0 23 22 23h891q12 0 18 -7t3 -18l-45 -164q-6 -18 -27 -18h-631v-1018h131q23 0 23 -23v-546q0 -23 -23 -23h-176q-22 0 -22 23v362h-142q-22 0 -22 23z" />
<glyph unicode="&#x4f7;" horiz-adv-x="921" d="M137 23v948q0 22 23 22h665q12 0 17.5 -7t1.5 -17l-45 -160q-6 -18 -27 -18h-407v-588h104q23 0 23 -23v-477q0 -22 -23 -22h-166q-22 0 -22 22v297h-121q-23 0 -23 23z" />
<glyph unicode="&#x4f8;" horiz-adv-x="1775" d="M158 23v1386q0 23 22 23h187q22 0 22 -23v-481h221q284 0 435 -122.5t151 -350.5q0 -214 -130.5 -334.5t-363.5 -120.5h-522q-22 0 -22 23zM389 207h313q122 0 190.5 65.5t68.5 182.5q0 130 -90 199t-261 69h-221v-516zM547 1712q0 62 35 94.5t102 32.5q65 0 100 -33 t35 -94t-35 -93t-100 -32q-137 0 -137 125zM934 1712q0 62 35 94.5t102 32.5q65 0 100 -33t35 -94t-35 -93t-100 -32q-137 0 -137 125zM1386 23v1386q0 23 23 23h186q23 0 23 -23v-1386q0 -23 -23 -23h-186q-23 0 -23 23z" />
<glyph unicode="&#x4f9;" horiz-adv-x="1466" d="M137 23v948q0 22 23 22h182q23 0 23 -22v-291h145q205 0 319.5 -92t114.5 -256q0 -157 -98.5 -244.5t-278.5 -87.5h-407q-23 0 -23 23zM365 203h202q71 0 111.5 34t40.5 95q0 68 -55.5 106.5t-153.5 38.5h-145v-274zM412 1356q0 60 33.5 94.5t91.5 34.5q60 0 93.5 -34.5 t33.5 -94.5q0 -64 -33 -97.5t-94 -33.5q-59 0 -92 33.5t-33 97.5zM774 1356q0 60 33.5 94.5t91.5 34.5q60 0 93.5 -34.5t33.5 -94.5q0 -64 -33 -97.5t-94 -33.5q-59 0 -92 33.5t-33 97.5zM1102 23v946q0 22 22 22h183q22 0 22 -22v-946q0 -23 -22 -23h-183q-22 0 -22 23z " />
<glyph unicode="&#x2000;" horiz-adv-x="953" />
<glyph unicode="&#x2001;" horiz-adv-x="1907" />
<glyph unicode="&#x2002;" horiz-adv-x="953" />
<glyph unicode="&#x2003;" horiz-adv-x="1907" />
<glyph unicode="&#x2004;" horiz-adv-x="635" />
<glyph unicode="&#x2005;" horiz-adv-x="476" />
<glyph unicode="&#x2006;" horiz-adv-x="317" />
<glyph unicode="&#x2007;" horiz-adv-x="317" />
<glyph unicode="&#x2008;" horiz-adv-x="238" />
<glyph unicode="&#x2009;" horiz-adv-x="381" />
<glyph unicode="&#x200a;" horiz-adv-x="105" />
<glyph unicode="&#x2010;" horiz-adv-x="894" d="M152 457v157q0 23 22 23h547q22 0 22 -23v-157q0 -23 -22 -23h-547q-22 0 -22 23z" />
<glyph unicode="&#x2011;" horiz-adv-x="894" d="M152 457v157q0 23 22 23h547q22 0 22 -23v-157q0 -23 -22 -23h-547q-22 0 -22 23z" />
<glyph unicode="&#x2012;" horiz-adv-x="894" d="M152 457v157q0 23 22 23h547q22 0 22 -23v-157q0 -23 -22 -23h-547q-22 0 -22 23z" />
<glyph unicode="&#x2013;" horiz-adv-x="1402" d="M152 457v157q0 23 22 23h1057q22 0 22 -23v-157q0 -23 -22 -23h-1057q-22 0 -22 23z" />
<glyph unicode="&#x2014;" horiz-adv-x="1673" d="M152 457v157q0 23 22 23h1325q23 0 23 -23v-157q0 -23 -23 -23h-1325q-22 0 -22 23z" />
<glyph unicode="&#x2018;" horiz-adv-x="473" d="M96 1184q0 -74 37.5 -115t104.5 -41q66 0 103.5 36.5t37.5 100.5q0 85 -74 123q-17 7 -23.5 15.5t-3 20.5t18.5 30l88 116h-137l-66 -86q-86 -109 -86 -200z" />
<glyph unicode="&#x2019;" horiz-adv-x="473" d="M88 1038h137l66 86q86 109 86 201q0 74 -37 115t-104 41q-66 0 -104 -37t-38 -101q0 -84 74 -122q17 -7 23.5 -15.5t3 -20.5t-18.5 -30z" />
<glyph unicode="&#x201a;" horiz-adv-x="473" d="M88 -170h137l66 86q86 109 86 201q0 74 -37 114.5t-104 40.5q-66 0 -104 -36.5t-38 -100.5q0 -85 74 -123q17 -7 23.5 -15.5t3 -20t-18.5 -29.5z" />
<glyph unicode="&#x201c;" horiz-adv-x="856" d="M96 1184q0 -74 37.5 -115t104.5 -41q66 0 103.5 36.5t37.5 100.5q0 85 -74 123q-17 7 -23.5 15.5t-3 20.5t18.5 30l88 116h-137l-66 -86q-86 -109 -86 -200zM481 1184q0 -74 37.5 -115t104.5 -41q66 0 103.5 36.5t37.5 100.5q0 85 -74 123q-17 7 -23.5 15.5t-3 20.5 t18.5 30l88 116h-137l-66 -86q-86 -109 -86 -200z" />
<glyph unicode="&#x201d;" horiz-adv-x="858" d="M88 1038h137l66 86q86 109 86 201q0 74 -37 115t-104 41q-66 0 -104 -37t-38 -101q0 -84 74 -122q17 -7 23.5 -15.5t3 -20.5t-18.5 -30zM473 1038h137l66 86q86 109 86 201q0 74 -37 115t-104 41q-66 0 -104 -37t-38 -101q0 -84 74 -122q17 -7 23.5 -15.5t3 -20.5 t-18.5 -30z" />
<glyph unicode="&#x201e;" horiz-adv-x="858" d="M88 -170h137l66 86q86 109 86 201q0 74 -37 114.5t-104 40.5q-66 0 -104 -36.5t-38 -100.5q0 -85 74 -123q17 -7 23.5 -15.5t3 -20t-18.5 -29.5zM473 -170h137l66 86q86 109 86 201q0 74 -37 114.5t-104 40.5q-66 0 -104 -36.5t-38 -100.5q0 -85 74 -123 q17 -7 23.5 -15.5t3 -20t-18.5 -29.5z" />
<glyph unicode="&#x2022;" horiz-adv-x="813" d="M178 713q0 116 60 179.5t168 63.5q110 0 169.5 -63t59.5 -180q0 -114 -59.5 -176t-169.5 -62q-108 0 -168 62t-60 176z" />
<glyph unicode="&#x2026;" horiz-adv-x="1296" d="M119 125q0 69 37 108t104 39t105 -39t38 -108t-38 -108.5t-105 -39.5t-104 39.5t-37 108.5zM516 125q0 69 37 108t104 39q68 0 106 -39t38 -108t-38.5 -108.5t-105.5 -39.5t-104 39.5t-37 108.5zM913 125q0 69 37.5 108t104.5 39t105 -39t38 -108t-38 -108.5t-105 -39.5 t-104.5 39.5t-37.5 108.5z" />
<glyph unicode="&#x202f;" horiz-adv-x="381" />
<glyph unicode="&#x2039;" horiz-adv-x="794" d="M139 496v6q0 17 8 28l250 342q12 15 27 15h197q15 0 19 -8.5t-5 -18.5l-262 -362l262 -363q9 -11 5 -18.5t-19 -7.5h-193q-16 0 -27 14l-254 344q-8 11 -8 29z" />
<glyph unicode="&#x203a;" horiz-adv-x="794" d="M155 116.5q-4 7.5 5 18.5l262 363l-262 362q-9 10 -5 18.5t19 8.5h197q14 0 26 -15l250 -342q8 -11 8 -28v-6q0 -18 -8 -29l-254 -344q-11 -14 -26 -14h-193q-15 0 -19 7.5z" />
<glyph unicode="&#x205f;" horiz-adv-x="476" />
<glyph unicode="&#x20ac;" horiz-adv-x="1406" d="M84 526v113q0 23 22 23h146l-2 55q0 49 2 74h-146q-22 0 -22 22v113q0 22 22 22h166q53 238 211 371t396 133q91 0 157 -10t142 -37l90 -31q20 -7 14 -26l-53 -158q-7 -21 -27 -14l-92 30q-93 32 -231 35q-136 0 -229.5 -76t-135.5 -217h465q28 0 18 -26l-45 -113 q-6 -18 -24 -18h-441q-2 -25 -2 -74l2 -55h390q28 0 18 -27l-43 -113q-6 -18 -25 -18h-317q37 -151 132.5 -232.5t236.5 -81.5q126 0 233 37l90 31q19 6 29 -14l55 -154q10 -22 -14 -29l-90 -30q-85 -30 -151.5 -42t-151.5 -12q-243 0 -402 139t-207 388h-164q-22 0 -22 22z " />
<glyph unicode="&#x2122;" horiz-adv-x="1892" d="M49 1296v113q0 23 23 23h671q23 0 23 -23v-113q0 -22 -23 -22h-254v-621q0 -22 -22 -22h-123q-22 0 -22 22v621h-250q-23 0 -23 22zM905 653v756q0 23 23 23h194q19 0 25 -19q5 -13 17 -39t16 -35l88 -184q5 -14 30.5 -79.5t32.5 -92.5q7 -20 17 0q12 48 65 172l88 184 q8 26 27 74q6 19 24 19h199q23 0 23 -23v-756q0 -22 -23 -22h-123q-22 0 -22 22v275q0 175 16 264q3 12 -5.5 15t-12.5 -9q-6 -16 -21.5 -49t-19.5 -43l-105 -223q-6 -14 -19.5 -44.5t-19.5 -43.5q-6 -19 -24 -19h-113q-19 0 -25 19q-16 42 -36 88l-105 223q-8 21 -43 92 q-6 12 -13 9t-5 -15q18 -100 18 -264v-275q0 -22 -22 -22h-123q-23 0 -23 22z" />
<glyph unicode="&#x25fc;" horiz-adv-x="993" d="M0 0v993h993v-993h-993z" />
</font>
</defs>
</svg>
